<?xml version="1.0" encoding="UTF-8" standalone="no"?>
<svg
   version="1.0"
   width="128"
   height="128"
   id="svg2732"
   sodipodi:version="0.32"
   inkscape:version="1.2.2 (b0a8486541, 2022-12-01)"
   sodipodi:docname="information-red.svg"
   inkscape:output_extension="org.inkscape.output.svg.inkscape"
   xmlns:inkscape="http://www.inkscape.org/namespaces/inkscape"
   xmlns:sodipodi="http://sodipodi.sourceforge.net/DTD/sodipodi-0.dtd"
   xmlns:xlink="http://www.w3.org/1999/xlink"
   xmlns="http://www.w3.org/2000/svg"
   xmlns:svg="http://www.w3.org/2000/svg"
   xmlns:rdf="http://www.w3.org/1999/02/22-rdf-syntax-ns#"
   xmlns:cc="http://creativecommons.org/ns#"
   xmlns:dc="http://purl.org/dc/elements/1.1/">
  <metadata
     id="metadata2932">
    <rdf:RDF>
      <cc:Work
         rdf:about="">
        <dc:format>image/svg+xml</dc:format>
        <dc:type
           rdf:resource="http://purl.org/dc/dcmitype/StillImage" />
      </cc:Work>
    </rdf:RDF>
  </metadata>
  <sodipodi:namedview
     inkscape:window-height="958"
     inkscape:window-width="1614"
     inkscape:pageshadow="2"
     inkscape:pageopacity="0.0"
     guidetolerance="10.0"
     gridtolerance="10.0"
     objecttolerance="10.0"
     borderopacity="1.0"
     bordercolor="#666666"
     pagecolor="#ffffff"
     id="base"
     showgrid="false"
     inkscape:zoom="2.40625"
     inkscape:cx="2.4935065"
     inkscape:cy="24.103896"
     inkscape:window-x="23"
     inkscape:window-y="40"
     inkscape:current-layer="svg2732"
     inkscape:showpageshadow="2"
     inkscape:pagecheckerboard="0"
     inkscape:deskcolor="#d1d1d1"
     inkscape:window-maximized="0" />
  <defs
     id="defs2734">
    <inkscape:perspective
       sodipodi:type="inkscape:persp3d"
       inkscape:vp_x="0 : 104 : 1"
       inkscape:vp_y="0 : 1000 : 0"
       inkscape:vp_z="48 : 104 : 1"
       inkscape:persp3d-origin="24 : 96 : 1"
       id="perspective2934" />
    <linearGradient
       id="lG3531">
      <stop
         style="stop-color:#ab1d04;stop-opacity:1;"
         id="stop2737"
         offset="0" />
      <stop
         style="stop-color:#ab4704;stop-opacity:1;"
         offset="0.73602742"
         id="stop2739" />
      <stop
         style="stop-color:#616471"
         offset="1"
         id="stop2741" />
    </linearGradient>
    <linearGradient
       id="lG3584">
      <stop
         style="stop-color:#ff4300;stop-opacity:0;"
         id="stop2744"
         offset="0" />
      <stop
         style="stop-color:#ff2c00;stop-opacity:0.32549018;"
         offset="0.5"
         id="stop2746" />
      <stop
         style="stop-color:#ff5600;stop-opacity:0;"
         offset="1"
         id="stop2748" />
    </linearGradient>
    <linearGradient
       id="lG3300">
      <stop
         style="stop-color:#4c4428"
         id="stop2751" />
      <stop
         style="stop-color:#e7b600;stop-opacity:0"
         offset="1"
         id="stop2753" />
    </linearGradient>
    <linearGradient
       id="lG3311">
      <stop
         style="stop-color:#d6d87b"
         id="stop2756" />
      <stop
         style="stop-color:#fbe843"
         offset="1"
         id="stop2758" />
    </linearGradient>
    <linearGradient
       id="lG3265">
      <stop
         style="stop-color:#dcd763"
         id="stop2761" />
      <stop
         style="stop-color:#d9bb05"
         offset="0.2647059"
         id="stop2763" />
      <stop
         style="stop-color:#dcd763"
         offset="0.63235295"
         id="stop2765" />
      <stop
         style="stop-color:#c7a107"
         offset="1"
         id="stop2767" />
    </linearGradient>
    <linearGradient
       id="lG3175">
      <stop
         style="stop-color:#fffff1"
         id="stop2770" />
      <stop
         style="stop-color:#f1f3ff;stop-opacity:0"
         offset="1"
         id="stop2772" />
    </linearGradient>
    <linearGradient
       id="lG2399">
      <stop
         style="stop-color:#929470"
         id="stop2775" />
      <stop
         style="stop-color:#fcffc1"
         offset="0.2647059"
         id="stop2777" />
      <stop
         style="stop-color:#f3f5ba"
         offset="0.63235295"
         id="stop2779" />
      <stop
         style="stop-color:#929470"
         offset="1"
         id="stop2781" />
    </linearGradient>
    <linearGradient
       id="lG6339">
      <stop
         style="stop-color:#ffffff"
         id="stop2784" />
      <stop
         style="stop-color:#ffffff;stop-opacity:0"
         offset="1"
         id="stop2786" />
    </linearGradient>
    <linearGradient
       id="lG20428">
      <stop
         style="stop-color:#ffb812"
         id="stop2789" />
      <stop
         style="stop-color:#ffb812;stop-opacity:0"
         offset="1"
         id="stop2791" />
    </linearGradient>
    <linearGradient
       id="lG20393">
      <stop
         style="stop-color:#ff1708;stop-opacity:1;"
         id="stop2794"
         offset="0" />
      <stop
         style="stop-color:#ff4f04;stop-opacity:0.43921569;"
         offset="0.41176471"
         id="stop2796" />
      <stop
         style="stop-color:#4c3e1c;stop-opacity:0.47843137"
         offset="1"
         id="stop2798" />
    </linearGradient>
    <linearGradient
       id="lG20210">
      <stop
         style="stop-color:#000000;stop-opacity:0.51546389"
         id="stop2801" />
      <stop
         style="stop-color:#000000;stop-opacity:0.14432989"
         offset="0.55172414"
         id="stop2803" />
      <stop
         style="stop-color:#000000;stop-opacity:0"
         offset="1"
         id="stop2805" />
    </linearGradient>
    <radialGradient
       cx="17.8335"
       cy="11.4873"
       r="22.709299"
       fx="17.8335"
       fy="11.4873"
       id="aigrd7"
       gradientUnits="userSpaceOnUse">
      <stop
         style="stop-color:#ffffff;stop-opacity:0.17525773"
         id="stop2808" />
      <stop
         style="stop-color:#ff3300;stop-opacity:1;"
         offset="0.88200003"
         id="stop2810" />
      <stop
         style="stop-color:#ff5600;stop-opacity:1;"
         offset="1"
         id="stop2812" />
    </radialGradient>
    <linearGradient
       x1="23.124001"
       y1="43.165001"
       x2="26.4785"
       y2="43.165001"
       id="aigrd1"
       gradientUnits="userSpaceOnUse">
      <stop
         style="stop-color:#686868;"
         offset="0.005618"
         id="stop2815" />
      <stop
         style="stop-color:#777777;"
         offset="0.03012137"
         id="stop2817" />
      <stop
         style="stop-color:#929292;"
         offset="0.08366583"
         id="stop2819" />
      <stop
         style="stop-color:#a7a7a7;"
         offset="0.1422"
         id="stop2821" />
      <stop
         style="stop-color:#b6b6b6;"
         offset="0.2074"
         id="stop2823" />
      <stop
         style="stop-color:#bebebe;"
         offset="0.2846"
         id="stop2825" />
      <stop
         style="stop-color:#c1c1c1;"
         offset="0.4045"
         id="stop2827" />
      <stop
         style="stop-color:#bcbcbc;"
         offset="0.4962"
         id="stop2829" />
      <stop
         style="stop-color:#adadad;"
         offset="0.6057"
         id="stop2831" />
      <stop
         style="stop-color:#959595;"
         offset="0.7245"
         id="stop2833" />
      <stop
         style="stop-color:#747474;"
         offset="0.8497"
         id="stop2835" />
      <stop
         style="stop-color:#494949;"
         offset="0.9789"
         id="stop2837" />
      <stop
         style="stop-color:#414141;"
         offset="1"
         id="stop2839" />
    </linearGradient>
    <linearGradient
       x1="18.9951"
       y1="37.226601"
       x2="30.169901"
       y2="37.226601"
       id="lG19894"
       gradientUnits="userSpaceOnUse">
      <stop
         style="stop-color:#a3a349;"
         offset="0.005618"
         id="stop2842" />
      <stop
         style="stop-color:#acac54;"
         offset="0.02078677"
         id="stop2844" />
      <stop
         style="stop-color:#c1c172;"
         offset="0.066"
         id="stop2846" />
      <stop
         style="stop-color:#d4d68e;"
         offset="0.1148"
         id="stop2848" />
      <stop
         style="stop-color:#e2e4a6;"
         offset="0.1677"
         id="stop2850" />
      <stop
         style="stop-color:#edf0b8;"
         offset="0.2265"
         id="stop2852" />
      <stop
         style="stop-color:#f3f6c3;"
         offset="0.2963"
         id="stop2854" />
      <stop
         style="stop-color:#f5f8c7;"
         offset="0.4045"
         id="stop2856" />
      <stop
         style="stop-color:#eef0be;"
         offset="0.5239"
         id="stop2858" />
      <stop
         style="stop-color:#dbdda9;"
         offset="0.6666"
         id="stop2860" />
      <stop
         style="stop-color:#bebd88;"
         offset="0.8211"
         id="stop2862" />
      <stop
         style="stop-color:#989564;"
         offset="0.9832"
         id="stop2864" />
      <stop
         style="stop-color:#949160;"
         offset="1"
         id="stop2866" />
    </linearGradient>
    <radialGradient
       cx="14.772334"
       cy="74.20993"
       r="7.8289828"
       fx="14.772334"
       fy="74.20993"
       id="rG20216"
       xlink:href="#lG20210"
       gradientUnits="userSpaceOnUse"
       gradientTransform="scale(1.764278,0.566804)" />
    <linearGradient
       x1="-22.87417"
       y1="38.675991"
       x2="-4.3908315"
       y2="38.675991"
       id="lG4108"
       xlink:href="#lG19894"
       gradientUnits="userSpaceOnUse"
       gradientTransform="scale(1.02645,0.974232)" />
    <linearGradient
       x1="-10.480865"
       y1="39.033951"
       x2="-23.851389"
       y2="39.142845"
       id="lG4110"
       xlink:href="#lG2399"
       gradientUnits="userSpaceOnUse"
       gradientTransform="scale(1.02645,0.974232)" />
    <linearGradient
       x1="-22.87417"
       y1="38.675991"
       x2="-4.3908315"
       y2="38.675991"
       id="lG4112"
       xlink:href="#lG19894"
       gradientUnits="userSpaceOnUse"
       gradientTransform="scale(1.02645,0.974232)" />
    <linearGradient
       x1="-10.480865"
       y1="39.033951"
       x2="-23.851389"
       y2="39.142845"
       id="lG4114"
       xlink:href="#lG2399"
       gradientUnits="userSpaceOnUse"
       gradientTransform="scale(1.02645,0.974232)" />
    <linearGradient
       x1="23.124001"
       y1="43.165001"
       x2="26.4785"
       y2="43.165001"
       id="lG2755"
       xlink:href="#aigrd1"
       gradientUnits="userSpaceOnUse"
       gradientTransform="matrix(1.7634105,0,0,1.5366701,-19.732605,-23.884032)" />
    <linearGradient
       x1="16.998856"
       y1="10.061084"
       x2="32.096882"
       y2="36.726292"
       id="lG2774"
       xlink:href="#lG6339"
       gradientUnits="userSpaceOnUse"
       gradientTransform="matrix(1.088532,0,0,0.9166207,0.7043474,-1.5743919)" />
    <linearGradient
       x1="37.940434"
       y1="16.651863"
       x2="-5.2517161"
       y2="3.8557322"
       id="lG2793"
       xlink:href="#lG3175"
       gradientUnits="userSpaceOnUse"
       gradientTransform="matrix(0.8533916,0,0,0.9752486,1.8913364,1.6641308)" />
    <radialGradient
       cx="68.137589"
       cy="29.869318"
       r="33.93409"
       fx="68.137589"
       fy="29.869318"
       id="rG2796"
       xlink:href="#aigrd7"
       gradientUnits="userSpaceOnUse"
       gradientTransform="matrix(0.5261727,0,0,0.7582733,-9.5647863,5.1185895)" />
    <linearGradient
       x1="17.879995"
       y1="55.362793"
       x2="11.906206"
       y2="54.863026"
       id="lG2799"
       xlink:href="#lG3311"
       gradientUnits="userSpaceOnUse"
       gradientTransform="matrix(1.5303857,0,0,0.5438301,1.0306099,1.6641308)" />
    <linearGradient
       x1="-29.007195"
       y1="-29.799353"
       x2="-37.641232"
       y2="-29.598314"
       id="lG2801"
       xlink:href="#lG3265"
       gradientUnits="userSpaceOnUse"
       gradientTransform="matrix(-0.8644621,-0.0434172,0.1808757,-0.9536764,1.0306099,1.6641308)" />
    <linearGradient
       x1="14.637301"
       y1="31.504122"
       x2="9.3648205"
       y2="32.25098"
       id="lG3574"
       xlink:href="#lG20428"
       gradientUnits="userSpaceOnUse"
       gradientTransform="matrix(1.8610153,0,0,0.4669515,1.2553727,5.473386)" />
    <linearGradient
       x1="30.620375"
       y1="10.313651"
       x2="32.16608"
       y2="18.162935"
       id="lG3577"
       xlink:href="#lG20393"
       gradientUnits="userSpaceOnUse"
       gradientTransform="matrix(0.5899687,0,0,1.4729675,0.9038103,4.8940498)" />
    <linearGradient
       x1="30.620375"
       y1="10.313651"
       x2="32.16608"
       y2="18.162935"
       id="lG3580"
       xlink:href="#lG20393"
       gradientUnits="userSpaceOnUse"
       gradientTransform="matrix(-0.5899687,0,0,1.4729675,47.100499,4.7781825)" />
    <radialGradient
       cx="27.75"
       cy="18.625"
       r="15.0625"
       fx="27.75"
       fy="18.625"
       id="rG3590"
       xlink:href="#lG3584"
       gradientUnits="userSpaceOnUse" />
    <linearGradient
       x1="-22.87417"
       y1="38.675991"
       x2="-4.3908315"
       y2="38.675991"
       id="lG3833"
       xlink:href="#lG19894"
       gradientUnits="userSpaceOnUse"
       gradientTransform="matrix(0.6119217,-0.1311762,0.06194293,0.7364078,30.37142,9.2548427)" />
    <linearGradient
       x1="-10.480865"
       y1="39.033951"
       x2="-23.851389"
       y2="39.142845"
       id="lG3835"
       xlink:href="#lG2399"
       gradientUnits="userSpaceOnUse"
       gradientTransform="matrix(0.6119217,-0.1311762,0.06194293,0.7364078,30.37142,9.2548427)" />
    <linearGradient
       x1="-22.87417"
       y1="38.675991"
       x2="-4.3908315"
       y2="38.675991"
       id="lG3840"
       xlink:href="#lG19894"
       gradientUnits="userSpaceOnUse"
       gradientTransform="matrix(0.5604295,0.02969716,-0.1172615,0.6523102,35.381303,20.961615)" />
    <linearGradient
       x1="-10.480865"
       y1="39.033951"
       x2="-23.851389"
       y2="39.142845"
       id="lG3842"
       xlink:href="#lG2399"
       gradientUnits="userSpaceOnUse"
       gradientTransform="matrix(0.5604295,0.02969716,-0.1172615,0.6523102,35.381303,20.961615)" />
    <linearGradient
       x1="24.613028"
       y1="31.146202"
       x2="24.613028"
       y2="26.739624"
       id="lG3845"
       xlink:href="#lG3300"
       gradientUnits="userSpaceOnUse"
       gradientTransform="matrix(0.9917,0,0,0.9909251,-0.408739,1.0079205)" />
    <linearGradient
       x1="23.413288"
       y1="1.9996886"
       x2="23.413288"
       y2="34.005379"
       id="lG3537"
       xlink:href="#lG3531"
       gradientUnits="userSpaceOnUse" />
    <linearGradient
       inkscape:collect="always"
       xlink:href="#lG6339"
       id="linearGradient2937"
       gradientUnits="userSpaceOnUse"
       gradientTransform="matrix(1.088532,0,0,0.9166207,0.7043474,-1.5743919)"
       x1="16.998856"
       y1="10.061084"
       x2="32.096882"
       y2="36.726292" />
    <linearGradient
       inkscape:collect="always"
       xlink:href="#lG20428"
       id="linearGradient2940"
       gradientUnits="userSpaceOnUse"
       gradientTransform="matrix(1.8610153,0,0,0.4669515,1.2553727,5.473386)"
       x1="14.637301"
       y1="31.504122"
       x2="9.3648205"
       y2="32.25098" />
    <linearGradient
       inkscape:collect="always"
       xlink:href="#lG20393"
       id="linearGradient2943"
       gradientUnits="userSpaceOnUse"
       gradientTransform="matrix(0.5899687,0,0,1.4729675,0.9038103,4.8940498)"
       x1="30.620375"
       y1="10.313651"
       x2="32.16608"
       y2="18.162935" />
    <linearGradient
       inkscape:collect="always"
       xlink:href="#lG20393"
       id="linearGradient2946"
       gradientUnits="userSpaceOnUse"
       gradientTransform="matrix(-0.5899687,0,0,1.4729675,47.100499,4.7781825)"
       x1="30.620375"
       y1="10.313651"
       x2="32.16608"
       y2="18.162935" />
    <linearGradient
       inkscape:collect="always"
       xlink:href="#lG3175"
       id="linearGradient2949"
       gradientUnits="userSpaceOnUse"
       gradientTransform="matrix(0.8533916,0,0,0.9752486,1.8913364,1.6641308)"
       x1="37.940434"
       y1="16.651863"
       x2="-5.2517161"
       y2="3.8557322" />
    <radialGradient
       inkscape:collect="always"
       xlink:href="#aigrd7"
       id="radialGradient2952"
       gradientUnits="userSpaceOnUse"
       gradientTransform="matrix(0.5261727,0,0,0.7582733,-9.5647863,5.1185895)"
       cx="68.137589"
       cy="29.869318"
       fx="68.137589"
       fy="29.869318"
       r="33.93409" />
    <linearGradient
       inkscape:collect="always"
       xlink:href="#lG3531"
       id="linearGradient2954"
       gradientUnits="userSpaceOnUse"
       x1="23.413288"
       y1="1.9996886"
       x2="23.413288"
       y2="34.005379" />
    <linearGradient
       inkscape:collect="always"
       xlink:href="#lG3311"
       id="linearGradient2957"
       gradientUnits="userSpaceOnUse"
       gradientTransform="matrix(1.5303857,0,0,0.5438301,1.0306099,1.6641308)"
       x1="17.879995"
       y1="55.362793"
       x2="11.906206"
       y2="54.863026" />
    <linearGradient
       inkscape:collect="always"
       xlink:href="#lG3265"
       id="linearGradient2959"
       gradientUnits="userSpaceOnUse"
       gradientTransform="matrix(-0.8644621,-0.0434172,0.1808757,-0.9536764,1.0306099,1.6641308)"
       x1="-29.007195"
       y1="-29.799353"
       x2="-37.641232"
       y2="-29.598314" />
    <linearGradient
       inkscape:collect="always"
       xlink:href="#lG19894"
       id="linearGradient2967"
       gradientUnits="userSpaceOnUse"
       gradientTransform="matrix(0.6119217,-0.1311762,0.06194293,0.7364078,30.37142,9.2548427)"
       x1="-22.87417"
       y1="38.675991"
       x2="-4.3908315"
       y2="38.675991" />
    <linearGradient
       inkscape:collect="always"
       xlink:href="#lG2399"
       id="linearGradient2969"
       gradientUnits="userSpaceOnUse"
       gradientTransform="matrix(0.6119217,-0.1311762,0.06194293,0.7364078,30.37142,9.2548427)"
       x1="-10.480865"
       y1="39.033951"
       x2="-23.851389"
       y2="39.142845" />
    <linearGradient
       inkscape:collect="always"
       xlink:href="#lG19894"
       id="linearGradient2972"
       gradientUnits="userSpaceOnUse"
       gradientTransform="matrix(0.6119222,-0.1311763,0.06194293,0.7364078,30.37142,12.330395)"
       x1="-22.87417"
       y1="38.675991"
       x2="-4.3908315"
       y2="38.675991" />
    <linearGradient
       inkscape:collect="always"
       xlink:href="#lG2399"
       id="linearGradient2974"
       gradientUnits="userSpaceOnUse"
       gradientTransform="matrix(0.6119222,-0.1311763,0.06194293,0.7364078,30.37142,12.330395)"
       x1="-10.480865"
       y1="39.033951"
       x2="-23.851389"
       y2="39.142845" />
    <linearGradient
       inkscape:collect="always"
       xlink:href="#lG19894"
       id="linearGradient2977"
       gradientUnits="userSpaceOnUse"
       gradientTransform="matrix(0.6119222,-0.1311763,0.06194293,0.7364078,30.37142,15.405948)"
       x1="-22.87417"
       y1="38.675991"
       x2="-4.3908315"
       y2="38.675991" />
    <linearGradient
       inkscape:collect="always"
       xlink:href="#lG2399"
       id="linearGradient2979"
       gradientUnits="userSpaceOnUse"
       gradientTransform="matrix(0.6119222,-0.1311763,0.06194293,0.7364078,30.37142,15.405948)"
       x1="-10.480865"
       y1="39.033951"
       x2="-23.851389"
       y2="39.142845" />
    <linearGradient
       inkscape:collect="always"
       xlink:href="#lG19894"
       id="linearGradient2982"
       gradientUnits="userSpaceOnUse"
       gradientTransform="matrix(0.5604295,0.02969716,-0.1172615,0.6523102,35.381303,20.961615)"
       x1="-22.87417"
       y1="38.675991"
       x2="-4.3908315"
       y2="38.675991" />
    <linearGradient
       inkscape:collect="always"
       xlink:href="#lG2399"
       id="linearGradient2984"
       gradientUnits="userSpaceOnUse"
       gradientTransform="matrix(0.5604295,0.02969716,-0.1172615,0.6523102,35.381303,20.961615)"
       x1="-10.480865"
       y1="39.033951"
       x2="-23.851389"
       y2="39.142845" />
    <linearGradient
       inkscape:collect="always"
       xlink:href="#lG3300"
       id="linearGradient2987"
       gradientUnits="userSpaceOnUse"
       gradientTransform="matrix(0.9917,0,0,0.9909251,-0.408739,1.0079205)"
       x1="24.613028"
       y1="31.146202"
       x2="24.613028"
       y2="26.739624" />
    <linearGradient
       inkscape:collect="always"
       xlink:href="#aigrd1"
       id="linearGradient2990"
       gradientUnits="userSpaceOnUse"
       gradientTransform="matrix(1.7634105,0,0,1.5366701,-19.732605,-23.884032)"
       x1="23.124001"
       y1="43.165001"
       x2="26.4785"
       y2="43.165001" />
    <radialGradient
       inkscape:collect="always"
       xlink:href="#lG20210"
       id="radialGradient2993"
       gradientUnits="userSpaceOnUse"
       gradientTransform="matrix(2.1121636,0,0,0.6226858,-6.201582,-3.209507)"
       cx="14.772334"
       cy="74.20993"
       fx="14.772334"
       fy="74.20993"
       r="7.8289828" />
    <radialGradient
       inkscape:collect="always"
       xlink:href="#lG3584"
       id="radialGradient2996"
       gradientUnits="userSpaceOnUse"
       cx="27.75"
       cy="18.625"
       fx="27.75"
       fy="18.625"
       r="15.0625"
       gradientTransform="matrix(1.341774,0,0,1.0894455,-13.234228,-3.745426)" />
  </defs>
  <g
     id="g466"
     transform="matrix(2.6535529,0,0,2.6535529,-2.2078221,0.39895049)">
    <path
       id="path2891"
       style="fill:url(#radialGradient2996)"
       d="m 44.210471,16.545496 c 0,9.062868 -9.048536,16.409773 -20.21047,16.409773 -11.161935,0 -20.2104714,-7.346905 -20.2104714,-16.409773 0,-9.0628668 9.0485364,-16.40977241 20.2104714,-16.40977241 11.161934,0 20.21047,7.34690561 20.21047,16.40977241 z" />
    <path
       id="path2893"
       style="opacity:0.8;fill:url(#radialGradient2993)"
       d="m 41.53609,42.999977 c 0,2.692387 -7.40346,4.874998 -16.53609,4.874998 -9.13263,0 -16.5360902,-2.182611 -16.5360902,-4.874998 0,-2.692387 7.4034602,-4.874998 16.5360902,-4.874998 9.13263,0 16.53609,2.182611 16.53609,4.874998 z" />
    <path
       id="path2895"
       style="fill:url(#linearGradient2990);stroke:#565656;stroke-width:1"
       d="m 21.0022,40.502514 v 1.383004 c 0,1.383004 1.41073,2.612342 2.9978,2.612342 1.587071,0 2.997799,-1.229338 2.997799,-2.612342 v -1.383004 z" />
    <path
       id="path2897"
       style="fill:#aeae57;stroke:url(#linearGradient2987);stroke-width:2"
       d="m 23.835146,28.498489 c -3.26679,-0.0079 -6.971431,0.956981 -4.963971,2.781027 -0.497724,0.201695 -1.209183,0.652152 -1.125314,1.706225 0.04631,0.550494 0.627148,0.88841 1.421489,1.136517 -0.900504,0.634496 -1.4735,1.304983 -1.421489,1.923336 0.04576,0.544076 0.61438,0.916665 1.392479,1.165659 -0.877813,0.627195 -1.443778,1.313462 -1.392479,1.923337 0.0784,0.932091 2.079601,1.97616 6.412913,1.855912 3.119933,-0.08543 5.873101,-0.647189 6.090386,-1.855912 0.08532,-0.474625 -0.301362,-0.91747 -0.899309,-1.311366 0.447626,-0.453222 0.761216,-0.912917 0.725249,-1.340508 -0.04598,-0.546638 -0.607907,-0.917007 -1.392478,-1.165658 0.877813,-0.627195 1.443777,-1.313462 1.392478,-1.923336 -0.04598,-0.54664 -0.607907,-0.887866 -1.392478,-1.136518 0.88828,-0.630582 1.444108,-1.309539 1.392478,-1.923337 -0.05739,-0.682277 -3.169609,-1.827935 -6.239954,-1.835378 z" />
    <path
       id="path2899"
       style="fill:url(#linearGradient2982);stroke:url(#linearGradient2984);stroke-width:0.088289"
       d="m 30.173604,39.09069 c -0.217286,1.208725 -3.292412,1.890831 -8.214327,1.643249 -3.117187,-0.1568 -3.29556,-1.032919 -3.078276,-2.241643 0.217286,-1.208726 2.923176,-2.055679 6.039934,-1.890522 3.116758,0.165157 5.469953,1.280192 5.252669,2.488916 z" />
    <path
       id="path2901"
       style="fill:url(#linearGradient2977);stroke:url(#linearGradient2979);stroke-width:0.0882891"
       d="m 29.994936,36.439584 c 0.114839,1.365262 -2.552269,3.063723 -5.957153,3.79362 -3.404884,0.729897 -6.258183,0.214832 -6.373022,-1.150429 -0.114839,-1.365262 2.552269,-3.063723 5.957153,-3.79362 3.404884,-0.729897 6.258183,-0.214832 6.373022,1.150429 z" />
    <path
       id="path2903"
       style="fill:url(#linearGradient2972);stroke:url(#linearGradient2974);stroke-width:0.0882891"
       d="m 29.994936,33.364031 c 0.114839,1.365262 -2.552269,3.063723 -5.957153,3.79362 -3.404884,0.729897 -6.258183,0.214832 -6.373022,-1.150429 -0.114839,-1.365262 2.552269,-3.063723 5.957153,-3.79362 3.404884,-0.729897 6.258183,-0.214832 6.373022,1.150429 z" />
    <path
       id="path2905"
       style="fill:url(#linearGradient2967);stroke:url(#linearGradient2969);stroke-width:0.0882891"
       d="m 29.95391,30.45333 c 0,1.36942 -2.512998,2.89925 -5.916126,3.628771 -3.403128,0.729521 -6.258242,0.214128 -6.373022,-1.150429 -0.11478,-1.364557 2.212069,-2.956163 5.617159,-3.1416 3.432075,-0.186903 6.671989,-0.04364 6.671989,0.663258 z" />
    <path
       id="path2907"
       style="fill:#ffffff"
       d="m 21.495434,35.516215 c 0,0.598253 -0.482791,1.083232 -1.078344,1.083232 -0.595554,0 -1.078345,-0.484979 -1.078345,-1.083232 0,-0.598253 0.482791,-1.083233 1.078345,-1.083233 0.595553,0 1.078344,0.48498 1.078344,1.083233 z" />
    <path
       id="path2909"
       style="fill:#000000;fill-opacity:0.233918;fill-rule:evenodd"
       d="m 18.722092,34.171692 c 3.357318,0.501416 6.902552,-0.03246 9.764259,-1.895762 0.802402,-0.522457 0.923091,-1.119601 1.292329,-1.586673 -1.40857,1.1196 -4.971021,4.134963 -11.056588,3.482435 z" />
    <path
       id="path2911"
       style="fill:#ffffff"
       d="m 21.495434,38.504493 c 0,0.598253 -0.482791,1.083232 -1.078344,1.083232 -0.595554,0 -1.078345,-0.484979 -1.078345,-1.083232 0,-0.598253 0.482791,-1.083233 1.078345,-1.083233 0.595553,0 1.078344,0.48498 1.078344,1.083233 z" />
    <path
       id="path2913"
       style="fill:#000000;fill-opacity:0.233918;fill-rule:evenodd"
       d="m 18.84517,40.271106 c 3.357319,0.501415 6.902552,-0.03246 9.764259,-1.895763 0.802403,-0.522456 0.923092,-1.119599 1.292329,-1.586672 -1.408569,1.119599 -4.97102,4.134962 -11.056588,3.482435 z" />
    <path
       id="path2915"
       style="fill:#000000;fill-opacity:0.233918;fill-rule:evenodd"
       d="m 18.865684,37.180187 c 3.357318,0.501416 6.902551,-0.03246 9.764258,-1.895763 0.802403,-0.522456 0.923092,-1.119599 1.29233,-1.586672 -1.40857,1.119599 -4.971021,4.134962 -11.056588,3.482435 z" />
    <path
       id="path2917"
       style="fill:url(#linearGradient2957);stroke:url(#linearGradient2959);stroke-width:0.088289"
       d="m 18.455672,30.967846 c 0,-0.783415 1.502387,-1.72053 5.295422,-1.668083 3.514168,0.04859 5.829116,0.886614 5.829116,2.140524 0,1.227316 -3.072688,2.048051 -6.348862,1.883507 -3.276173,-0.164544 -4.775676,-1.128632 -4.775676,-2.355948 z" />
    <path
       id="path2919"
       style="fill:url(#radialGradient2952);stroke:url(#linearGradient2954);stroke-width:0.9875"
       d="m 24,2.4934387 c -7.465638,0 -13.52799,5.9144368 -13.52799,13.1979183 0,7.466149 5.479974,8.293052 5.479974,11.044668 0,3.232977 3.212906,6.899082 8.495922,6.766744 5.617685,-0.140719 7.936039,-3.329266 7.936039,-6.766744 0,-2.938853 5.144044,-3.017226 5.144044,-11.044668 C 37.527989,8.4078755 31.465638,2.4934387 24,2.4934387 Z" />
    <path
       id="path2921"
       style="fill:none;stroke:url(#linearGradient2949);stroke-width:0.920338"
       d="m 24,3.5480659 c -6.957882,0 -12.607919,5.5121823 -12.607919,12.3002971 0,6.958358 5.107268,7.729022 5.107268,10.293494 0,3.013096 2.994388,6.429859 7.918095,6.306522 5.235612,-0.13115 7.39629,-3.102835 7.39629,-6.306522 0,-2.738974 4.794185,-2.812018 4.794185,-10.293494 C 36.607919,9.0602482 30.957882,3.5480659 24,3.5480659 Z" />
    <path
       id="path2923"
       style="fill:url(#linearGradient2946)"
       d="m 29.53101,19.070048 c 0.293196,0.09663 0.48866,0.386524 0.390927,0.676416 l -3.616075,10.726009 c -0.09773,0.289892 -0.390927,0.483153 -0.684123,0.386523 -0.293194,-0.09663 -0.488657,-0.386523 -0.390926,-0.676415 l 3.616075,-10.726009 c 0.09773,-0.289892 0.390928,-0.483154 0.684122,-0.386524 z" />
    <path
       id="path2925"
       style="fill:url(#linearGradient2943)"
       d="m 18.473303,19.185915 c -0.293196,0.09663 -0.48866,0.386524 -0.390927,0.676416 l 3.616075,10.726009 c 0.09773,0.289893 0.390927,0.483154 0.684123,0.386523 0.293194,-0.09663 0.488658,-0.386523 0.390926,-0.676414 l -3.616075,-10.72601 c -0.09773,-0.289892 -0.390928,-0.483154 -0.684122,-0.386524 z" />
    <path
       id="path2927"
       style="fill:#ff4600;fill-opacity:1;stroke:url(#linearGradient2940);stroke-width:0.2"
       d="m 18.569826,19.116755 c -0.230541,0.03899 -0.411146,0.2175 -0.450665,0.44543 -0.03952,0.227929 0.07064,0.455721 0.274884,0.568408 0,0 1.727083,1.001899 3.984375,1.506274 2.257291,0.504376 5.145844,0.537093 7.324218,-1.564207 0.164293,-0.128875 0.240462,-0.338718 0.196543,-0.541475 -0.04392,-0.202757 -0.200327,-0.363351 -0.403592,-0.414393 -0.203265,-0.05104 -0.418222,0.0163 -0.554669,0.173764 -1.828628,1.763927 -4.260786,1.765438 -6.328125,1.303506 -2.06734,-0.461932 -3.66211,-1.390407 -3.66211,-1.390407 -0.111969,-0.07396 -0.247434,-0.104868 -0.380859,-0.0869 z" />
    <path
       id="path2929"
       style="opacity:0.597765;fill:url(#linearGradient2937)"
       d="m 24.306505,5.1682019 c -5.978176,0 -10.828873,3.9848174 -10.828873,8.8924001 0,1.960052 0.933021,3.676289 2.243551,5.146519 1.481923,0.625458 3.096028,1.074904 4.875985,1.074904 5.978176,0 10.828871,-3.984816 10.828873,-8.892402 0,-1.9718701 -0.948528,-3.7041538 -2.273465,-5.1790881 -1.47501,-0.6180475 -3.077416,-1.0423331 -4.846071,-1.042333 z" />
  </g>
</svg>
