<?xml version="1.0" encoding="UTF-8" standalone="no"?>
<!-- Created with Inkscape (http://www.inkscape.org/) -->

<svg
   version="1.0"
   width="128"
   height="128"
   id="svg1800"
   sodipodi:docname="question.svg"
   inkscape:version="1.2.2 (b0a8486541, 2022-12-01)"
   xmlns:inkscape="http://www.inkscape.org/namespaces/inkscape"
   xmlns:sodipodi="http://sodipodi.sourceforge.net/DTD/sodipodi-0.dtd"
   xmlns:xlink="http://www.w3.org/1999/xlink"
   xmlns="http://www.w3.org/2000/svg"
   xmlns:svg="http://www.w3.org/2000/svg">
  <sodipodi:namedview
     id="namedview14"
     pagecolor="#ffffff"
     bordercolor="#000000"
     borderopacity="0.25"
     inkscape:showpageshadow="2"
     inkscape:pageopacity="0.0"
     inkscape:pagecheckerboard="0"
     inkscape:deskcolor="#d1d1d1"
     showgrid="false"
     inkscape:zoom="1.0572917"
     inkscape:cx="12.295566"
     inkscape:cy="23.64532"
     inkscape:window-width="1920"
     inkscape:window-height="988"
     inkscape:window-x="0"
     inkscape:window-y="40"
     inkscape:window-maximized="1"
     inkscape:current-layer="svg1800" />
  <defs
     id="defs3">
    <linearGradient
       id="linearGradient3101">
      <stop
         id="stop3103"
         style="stop-color:#000000;stop-opacity:1"
         offset="0" />
      <stop
         id="stop3105"
         style="stop-color:#000000;stop-opacity:0"
         offset="1" />
    </linearGradient>
    <radialGradient
       cx="17.3125"
       cy="25.53125"
       r="9.6875"
       fx="17.3125"
       fy="25.53125"
       id="radialGradient3107"
       xlink:href="#linearGradient3101"
       gradientUnits="userSpaceOnUse"
       gradientTransform="matrix(1,0,0,0.351613,0,16.55413)" />
  </defs>
  <g
     id="layer1"
     transform="matrix(2.5441706,0,0,2.5441706,1.7548714,2.2649306)">
    <path
       d="m 27,25.53125 c 0,1.88122 -4.337241,3.40625 -9.6875,3.40625 -5.350259,0 -9.6875,-1.52503 -9.6875,-3.40625 0,-1.88122 4.337241,-3.40625 9.6875,-3.40625 5.350259,0 9.6875,1.52503 9.6875,3.40625 z"
       transform="matrix(2.182912,0,0,2.182912,-13.50372,-14.35012)"
       id="path3099"
       style="opacity:0.409091;fill:url(#radialGradient3107)" />
    <path
       d="m 46.138718,23.42804 c 0,11.715729 -9.85363,21.213204 -22.0087,21.213204 -12.155069,0 -22.0086993,-9.497475 -22.0086992,-21.213204 -1e-7,-11.715729 9.8536302,-21.2132038 22.0086992,-21.2132038 12.15507,0 22.0087,9.4974748 22.0087,21.2132038 z"
       transform="matrix(0.94463,0,0,0.980053,1.504174,-1.556912)"
       id="path1650"
       style="opacity:1;fill:#f57900;fill-opacity:1;fill-rule:nonzero;stroke:#914900;stroke-width:1;stroke-linecap:round;stroke-linejoin:round;stroke-miterlimit:4" />
    <path
       d="m 46.138718,23.42804 c 0,11.715729 -9.85363,21.213204 -22.0087,21.213204 -12.155069,0 -22.0086993,-9.497475 -22.0086992,-21.213204 -1e-7,-11.715729 9.8536302,-21.2132038 22.0086992,-21.2132038 12.15507,0 22.0087,9.4974748 22.0087,21.2132038 z"
       transform="matrix(0.914086,0,0,0.948364,2.380576,-0.905815)"
       id="path3392"
       style="opacity:1;fill:none;fill-opacity:1;fill-rule:nonzero;stroke:#fcaf3e;stroke-width:1;stroke-linecap:round;stroke-linejoin:round;stroke-miterlimit:4" />
    <path
       d="m 24.671131,9.5255441 c -0.904701,2.09e-5 -1.834678,0.1159421 -2.803114,0.3234076 -0.96784,0.2073803 -2.03332,0.5057003 -3.203543,0.9408143 -0.0089,-0.0011 -0.01783,-0.0011 -0.0267,0 -0.01031,0.0081 -0.01932,0.01805 -0.02671,0.02941 -0.01029,0.0081 -0.01932,0.01805 -0.02668,0.0294 -0.001,0.0098 -0.001,0.01963 0,0.0294 -0.001,0.0098 -0.001,0.01963 0,0.02941 v 4.851091 c -0.001,0.0098 -0.001,0.01964 0,0.02941 -0.001,0.0098 -0.001,0.01964 0,0.0294 0.0074,0.01135 0.01639,0.02128 0.02668,0.02941 0.0074,0.01134 0.0164,0.02127 0.02671,0.0294 0.0089,0.0011 0.01783,0.0011 0.0267,0 0.0089,0.0011 0.01782,0.0011 0.02669,0 0.0089,0.0011 0.01784,0.0011 0.02671,0 0.0089,0.0011 0.01782,0.0011 0.02669,0 0.975977,-0.676493 1.907913,-1.192162 2.803126,-1.528832 0.895399,-0.346935 1.745391,-0.529201 2.509439,-0.529217 0.8109,1.6e-5 1.405229,0.198085 1.842042,0.588013 0.434593,0.378292 0.667401,0.924868 0.667408,1.617029 -6e-6,0.452219 -0.12317,0.89511 -0.373749,1.352426 -0.241749,0.458194 -0.632385,0.969514 -1.174636,1.499432 l -0.934367,0.882021 c -1.026385,1.016537 -1.69937,1.873188 -2.028915,2.557852 -0.327284,0.669335 -0.480539,1.4294 -0.480537,2.293242 v 0.764408 c -0.001,0.0098 -0.001,0.01964 0,0.02941 -0.001,0.0098 -0.001,0.01963 0,0.0294 0.0074,0.01134 0.01639,0.02128 0.0267,0.0294 0.0074,0.01134 0.0164,0.02128 0.0267,0.0294 0.0089,0.0011 0.01782,0.0011 0.02669,0 0.0089,0.0011 0.01783,0.0011 0.0267,0 h 5.205772 c 0.0089,0.0011 0.01782,0.0011 0.02669,0 0.0089,0.0011 0.01783,0.0011 0.0267,0 0.0103,-0.0081 0.01932,-0.01805 0.0267,-0.0294 0.01031,-0.0081 0.01932,-0.01806 0.0267,-0.0294 0.001,-0.0098 0.001,-0.01963 0,-0.0294 0.001,-0.0098 0.001,-0.01964 0,-0.02941 v -0.705605 c -8e-6,-0.44049 0.12675,-0.84002 0.320353,-1.20543 0.189913,-0.368125 0.604899,-0.894115 1.254733,-1.528825 l 0.907669,-0.88202 c 0.911168,-0.924172 1.563902,-1.773117 1.948826,-2.587249 0.3838,-0.822322 0.587301,-1.762549 0.587323,-2.793051 -2.2e-5,-2.000434 -0.635398,-3.513049 -1.895441,-4.557097 C 28.856949,10.058501 27.036425,9.525565 24.671131,9.5255441 Z M 21.627761,27.5481 c -0.01031,0.0081 -0.01934,0.01806 -0.0267,0.02939 -0.01031,0.0081 -0.01932,0.01806 -0.0267,0.02941 -0.001,0.0098 -0.001,0.01963 0,0.0294 -0.001,0.0098 -0.001,0.01963 0,0.0294 v 5.497898 c -0.001,0.0098 -0.001,0.01964 0,0.0294 -0.001,0.0098 -0.001,0.01964 0,0.0294 0.0074,0.01134 0.01639,0.02128 0.0267,0.0294 0.0074,0.01135 0.0164,0.02128 0.0267,0.0294 0.0089,0.0011 0.01782,0.0011 0.02669,0 0.0089,0.0011 0.01783,0.0011 0.0267,0 h 5.205772 c 0.0089,0.0011 0.01782,0.0011 0.02669,0 0.0089,0.0011 0.01783,0.0011 0.0267,0 0.0103,-0.0081 0.01932,-0.01805 0.0267,-0.0294 0.01031,-0.0081 0.01932,-0.01805 0.0267,-0.0294 0.001,-0.0098 0.001,-0.01965 0,-0.0294 0.001,-0.0098 0.001,-0.01963 0,-0.0294 V 27.66571 c 0.001,-0.0098 0.001,-0.01963 0,-0.0294 0.001,-0.0098 0.001,-0.01963 0,-0.0294 -0.0074,-0.01135 -0.01639,-0.02128 -0.0267,-0.02941 -0.0074,-0.01134 -0.0164,-0.02127 -0.0267,-0.02939 -0.0089,-0.0011 -0.01782,-0.0011 -0.0267,0 -0.0089,-0.0011 -0.01782,-0.0011 -0.02669,0 h -5.205772 c -0.0089,-0.0011 -0.01783,-0.0011 -0.0267,0 -0.0089,-0.0011 -0.01783,-0.0011 -0.02669,0 z"
       id="rect1872"
       style="fill:#ffffff" />
    <path
       d="m 43.676426,20.47678 c 0,10.830616 -6.052169,-4.306199 -18.674738,0.386388 C 12.279172,25.592912 4.4350535,31.307396 4.4350535,20.47678 4.4350535,9.6461627 13.22512,0.85609769 24.05574,0.85609769 c 10.830619,0 19.620686,8.79006501 19.620686,19.62068231 z"
       id="path3068"
       style="fill:#fffeff;fill-opacity:0.213904" />
  </g>
</svg>
