<?xml version="1.0" encoding="UTF-8" standalone="no"?>
<!-- Created with Inkscape (http://www.inkscape.org/) -->

<svg
   version="1.0"
   width="128"
   height="128"
   id="svg0"
   sodipodi:docname="star.svg"
   inkscape:version="1.2.2 (b0a8486541, 2022-12-01)"
   xmlns:inkscape="http://www.inkscape.org/namespaces/inkscape"
   xmlns:sodipodi="http://sodipodi.sourceforge.net/DTD/sodipodi-0.dtd"
   xmlns:xlink="http://www.w3.org/1999/xlink"
   xmlns="http://www.w3.org/2000/svg"
   xmlns:svg="http://www.w3.org/2000/svg">
  <sodipodi:namedview
     id="namedview20"
     pagecolor="#ffffff"
     bordercolor="#000000"
     borderopacity="0.25"
     inkscape:showpageshadow="2"
     inkscape:pageopacity="0.0"
     inkscape:pagecheckerboard="0"
     inkscape:deskcolor="#d1d1d1"
     showgrid="false"
     inkscape:zoom="2.9904724"
     inkscape:cx="11.703836"
     inkscape:cy="24.076463"
     inkscape:window-width="1920"
     inkscape:window-height="988"
     inkscape:window-x="0"
     inkscape:window-y="40"
     inkscape:window-maximized="1"
     inkscape:current-layer="svg0" />
  <defs
     id="defs">
    <linearGradient
       id="G0">
      <stop
         id="s1"
         style="stop-color:#e6cf00;stop-opacity:1"
         offset="0" />
      <stop
         id="s2"
         style="stop-color:#fde94a;stop-opacity:1"
         offset="1" />
    </linearGradient>
    <linearGradient
       id="G1">
      <stop
         id="s3"
         style="stop-color:#fcf9fb;stop-opacity:1"
         offset="0" />
      <stop
         id="s4"
         style="stop-color:#fcf9fb;stop-opacity:0"
         offset="1" />
    </linearGradient>
    <linearGradient
       id="G2">
      <stop
         id="s5"
         style="stop-color:#000000;stop-opacity:0.63"
         offset="0" />
      <stop
         id="s6"
         style="stop-color:#000000;stop-opacity:0"
         offset="1" />
    </linearGradient>
    <linearGradient
       x1="14.660452"
       y1="7.0243196"
       x2="24.030643"
       y2="34.826122"
       id="G3"
       xlink:href="#G1"
       gradientUnits="userSpaceOnUse" />
    <radialGradient
       cx="24"
       cy="22"
       r="22"
       fx="24"
       fy="22"
       id="R0"
       xlink:href="#G0"
       gradientUnits="userSpaceOnUse"
       gradientTransform="matrix(1,-0.2,0.2,1,-3.8,6.8)" />
    <radialGradient
       cx="17.3125"
       cy="25.53125"
       r="9.6875"
       fx="17.3125"
       fy="25.53125"
       id="R1"
       xlink:href="#G2"
       gradientUnits="userSpaceOnUse"
       gradientTransform="matrix(2.4,0,0,0.67,-17.1,22.4)" />
  </defs>
  <g
     id="g253"
     transform="matrix(2.721542,0,0,2.721542,-1.7459522,-0.52280355)">
    <path
       d="M 47,39.5 C 47,43.08967 36.702552,46 24,46 11.297449,46 1,43.08967 1,39.5 1,35.91 11.297449,32 24,32 c 12.702552,0 23,3.909969 23,7.5 z"
       id="s"
       style="opacity:0.5;fill:url(#R1)" />
    <path
       d="M 37.310531,41.5 24.030644,34.826121 10.735101,41.471448 13.289408,27.369086 2.5511635,17.368344 17.409702,15.326301 24.068641,2.5 l 6.628775,12.840488 14.853695,2.073761 -10.761729,9.97779 z"
       id="star"
       style="fill:url(#R0);stroke:#c4a000" />
    <path
       d="m 17.731857,15.79089 6.331883,-12.2040705 6.305712,12.2079845 14.070696,1.966694 -3.619753,3.360009 c -16.4375,-3.6875 -9.455375,7.220474 -27.568647,9.243214 L 13.819799,27.184324 3.6604518,17.718688 c 0,0 14.0714052,-1.927798 14.0714052,-1.927798 z"
       id="hl"
       style="opacity:0.8;fill:url(#G3);stroke:none" />
    <path
       d="M 35.973752,39.712833 24.028333,33.709386 12.082531,39.678326 14.362768,27.008543 4.7776396,18.070249 18.056076,16.247921 24.062792,4.6783526 l 5.98244,11.5773884 13.277727,1.857319 -9.609256,8.921725 z"
       id="ol"
       style="opacity:0.69;fill:none;stroke:#ffffff" />
  </g>
</svg>
