<?xml version="1.0" encoding="UTF-8" standalone="no"?>
<!-- Created with Inkscape (http://www.inkscape.org/) -->

<svg
   width="96"
   height="96"
   id="svg2"
   version="1.1"
   inkscape:version="1.4.2 (ebf0e940d0, 2025-05-08)"
   sodipodi:docname="10.svg"
   inkscape:export-filename="/a/home/cc/students/cs/barakitk/Documents/Cage_16_Blue.png"
   inkscape:export-xdpi="90"
   inkscape:export-ydpi="90"
   sodipodi:version="0.32"
   inkscape:output_extension="org.inkscape.output.svg.inkscape"
   viewBox="0 0 96 96"
   xmlns:inkscape="http://www.inkscape.org/namespaces/inkscape"
   xmlns:sodipodi="http://sodipodi.sourceforge.net/DTD/sodipodi-0.dtd"
   xmlns="http://www.w3.org/2000/svg"
   xmlns:svg="http://www.w3.org/2000/svg"
   xmlns:rdf="http://www.w3.org/1999/02/22-rdf-syntax-ns#"
   xmlns:cc="http://creativecommons.org/ns#"
   xmlns:dc="http://purl.org/dc/elements/1.1/">
  <defs
     id="defs4" />
  <sodipodi:namedview
     id="base"
     pagecolor="#ffffff"
     bordercolor="#dadada"
     borderopacity="1"
     inkscape:pageopacity="0.0"
     inkscape:pageshadow="2"
     inkscape:zoom="1.1268467"
     inkscape:cx="8.8743216"
     inkscape:cy="84.306055"
     inkscape:document-units="px"
     inkscape:current-layer="layer1"
     showgrid="false"
     objecttolerance="20"
     inkscape:object-nodes="false"
     inkscape:object-paths="false"
     inkscape:snap-global="true"
     inkscape:snap-nodes="false"
     inkscape:snap-center="false"
     inkscape:window-width="1614"
     inkscape:window-height="730"
     inkscape:window-x="327"
     inkscape:window-y="55"
     inkscape:window-maximized="0"
     showborder="true"
     borderlayer="true"
     inkscape:showpageshadow="false"
     inkscape:snap-bbox="true"
     showguides="true"
     inkscape:pagecheckerboard="0"
     inkscape:deskcolor="#d1d1d1">
    <inkscape:grid
       type="xygrid"
       id="grid4140"
       empspacing="5"
       visible="false"
       enabled="true"
       snapvisiblegridlinesonly="true"
       originx="0"
       originy="0"
       spacingy="1"
       spacingx="1"
       units="px" />
  </sodipodi:namedview>
  <metadata
     id="metadata7">
    <rdf:RDF>
      <cc:Work
         rdf:about="">
        <dc:format>image/svg+xml</dc:format>
        <dc:type
           rdf:resource="http://purl.org/dc/dcmitype/StillImage" />
        <dc:creator>
          <cc:Agent>
            <dc:title>Barak Itkin &lt;lightningismyname@gmail.com&gt;</dc:title>
          </cc:Agent>
        </dc:creator>
        <dc:rights>
          <cc:Agent>
            <dc:title>Barak Itkin &lt;lightningismyname@gmail.com&gt;</dc:title>
          </cc:Agent>
        </dc:rights>
        <dc:date>July 2010</dc:date>
        <cc:license
           rdf:resource="" />
      </cc:Work>
    </rdf:RDF>
  </metadata>
  <g
     inkscape:label="Layer 1"
     inkscape:groupmode="layer"
     id="layer1"
     transform="translate(0,-1036.3622)">
    <g
       id="g41"
       transform="matrix(-0.25091899,0,0,0.25091899,216.87622,960.50202)">
      <path
         id="path9"
         d="m 600.90932,579.14138 c -51.13467,-18.19733 -86.112,-55.05466 -86.112,-97.56399 0,-60.56267 70.98933,-109.65733 158.55866,-109.65733 87.56933,0 158.55867,49.09466 158.55867,109.65733 0,60.56133 -70.98934,109.65599 -158.55867,109.65599 -8.77333,0 -17.37733,-0.5 -25.76266,-1.448 l -110.97867,23.104 64.29467,-33.748"
         style="fill:#ffffff;fill-opacity:1;fill-rule:nonzero;stroke:none;stroke-width:0.133333" />
      <path
         id="path10"
         d="m 673.35598,375.92006 c -85.22399,0 -154.55866,47.39733 -154.55866,105.65733 0,39.536 31.97733,75.476 83.45333,93.79599 l 8.608,3.06267 -47.08,24.712 83.62667,-17.40933 0.63733,0.072 c 8.356,0.944 16.87333,1.42266 25.31333,1.42266 85.224,0 154.55867,-47.39733 154.55867,-105.65599 0,-58.26 -69.33467,-105.65733 -154.55867,-105.65733 z m -163.90533,246.70932 81.752,-42.91066 c -49.83466,-20.34133 -80.40533,-57.35733 -80.40533,-98.14133 0,-62.67067 72.924,-113.65733 162.55866,-113.65733 89.63467,0 162.55867,50.98666 162.55867,113.65733 0,62.67066 -72.924,113.65599 -162.55867,113.65599 -8.524,0 -17.12266,-0.47066 -25.572,-1.40133 l -138.33333,28.79733"
         style="fill:#211d1d;fill-opacity:1;fill-rule:nonzero;stroke:none;stroke-width:0.133333" />
    </g>
  </g>
</svg>
