<?xml version="1.0" encoding="UTF-8" standalone="no"?>
<!-- Created with Inkscape (http://www.inkscape.org/) -->

<svg
   width="96"
   height="96"
   id="svg2"
   version="1.1"
   inkscape:version="1.4.2 (ebf0e940d0, 2025-05-08)"
   sodipodi:docname="11.svg"
   inkscape:export-filename="/a/home/cc/students/cs/barakitk/Documents/Cage_16_Blue.png"
   inkscape:export-xdpi="90"
   inkscape:export-ydpi="90"
   sodipodi:version="0.32"
   inkscape:output_extension="org.inkscape.output.svg.inkscape"
   viewBox="0 0 96 96"
   xmlns:inkscape="http://www.inkscape.org/namespaces/inkscape"
   xmlns:sodipodi="http://sodipodi.sourceforge.net/DTD/sodipodi-0.dtd"
   xmlns="http://www.w3.org/2000/svg"
   xmlns:svg="http://www.w3.org/2000/svg"
   xmlns:rdf="http://www.w3.org/1999/02/22-rdf-syntax-ns#"
   xmlns:cc="http://creativecommons.org/ns#"
   xmlns:dc="http://purl.org/dc/elements/1.1/">
  <defs
     id="defs4" />
  <sodipodi:namedview
     id="base"
     pagecolor="#ffffff"
     bordercolor="#dadada"
     borderopacity="1"
     inkscape:pageopacity="0.0"
     inkscape:pageshadow="2"
     inkscape:zoom="1.1268467"
     inkscape:cx="8.8743216"
     inkscape:cy="84.306055"
     inkscape:document-units="px"
     inkscape:current-layer="layer1"
     showgrid="false"
     objecttolerance="20"
     inkscape:object-nodes="false"
     inkscape:object-paths="false"
     inkscape:snap-global="true"
     inkscape:snap-nodes="false"
     inkscape:snap-center="false"
     inkscape:window-width="1614"
     inkscape:window-height="730"
     inkscape:window-x="327"
     inkscape:window-y="55"
     inkscape:window-maximized="0"
     showborder="true"
     borderlayer="true"
     inkscape:showpageshadow="false"
     inkscape:snap-bbox="true"
     showguides="true"
     inkscape:pagecheckerboard="0"
     inkscape:deskcolor="#d1d1d1">
    <inkscape:grid
       type="xygrid"
       id="grid4140"
       empspacing="5"
       visible="false"
       enabled="true"
       snapvisiblegridlinesonly="true"
       originx="0"
       originy="0"
       spacingy="1"
       spacingx="1"
       units="px" />
  </sodipodi:namedview>
  <metadata
     id="metadata7">
    <rdf:RDF>
      <cc:Work
         rdf:about="">
        <dc:format>image/svg+xml</dc:format>
        <dc:type
           rdf:resource="http://purl.org/dc/dcmitype/StillImage" />
        <dc:creator>
          <cc:Agent>
            <dc:title>Barak Itkin &lt;lightningismyname@gmail.com&gt;</dc:title>
          </cc:Agent>
        </dc:creator>
        <dc:rights>
          <cc:Agent>
            <dc:title>Barak Itkin &lt;lightningismyname@gmail.com&gt;</dc:title>
          </cc:Agent>
        </dc:rights>
        <dc:date>July 2010</dc:date>
        <cc:license
           rdf:resource="" />
      </cc:Work>
    </rdf:RDF>
  </metadata>
  <g
     inkscape:label="Layer 1"
     inkscape:groupmode="layer"
     id="layer1"
     transform="translate(0,-1036.3622)">
    <g
       id="g42"
       transform="matrix(0.32346943,0,0,0.32346943,-55.754086,1020.271)">
      <path
         id="path3"
         d="m 392.37466,272.93073 c 23.344,-20.98267 38.03066,-51.40534 38.03066,-85.26534 0,-63.29733 -51.31333,-114.610659 -114.61199,-114.610659 -63.29734,0 -114.61067,51.313329 -114.61067,114.610659 0,63.29867 51.31333,114.612 114.61067,114.612 19.61999,0 38.08533,-4.93466 54.23066,-13.62266 l 43.96533,30.89999 -21.61466,-46.62399"
         style="fill:#ffffff;fill-opacity:1;fill-rule:nonzero;stroke:none;stroke-width:0.133333" />
      <path
         id="path4"
         d="m 370.30399,283.96273 33.784,23.74266 -16.58667,-35.77466 2.19867,-1.976 c 23.32667,-20.964 36.70533,-50.95867 36.70533,-82.28934 0,-60.99066 -49.62,-110.610659 -110.61199,-110.610659 -60.99067,0 -110.61067,49.619999 -110.61067,110.610659 0,60.992 49.62,110.612 110.61067,110.612 18.25866,0 36.35599,-4.54533 52.33599,-13.144 z m 53.58667,47.43999 -54.16934,-38.07199 c -16.59333,8.476 -35.184,12.94666 -53.92799,12.94666 -65.40267,0 -118.61067,-53.20933 -118.61067,-118.612 0,-65.40266 53.208,-118.610659 118.61067,-118.610659 65.40266,0 118.61199,53.207999 118.61199,118.610659 0,32.60667 -13.51466,63.864 -37.17466,86.228 l 26.66,57.50933"
         style="fill:#211d1d;fill-opacity:1;fill-rule:nonzero;stroke:none;stroke-width:0.133333" />
    </g>
  </g>
</svg>
