<?xml version="1.0" encoding="UTF-8" standalone="no"?>
<!-- Created with Inkscape (http://www.inkscape.org/) -->

<svg
   width="96"
   height="96"
   id="svg2"
   version="1.1"
   inkscape:version="1.4.2 (ebf0e940d0, 2025-05-08)"
   sodipodi:docname="14.svg"
   inkscape:export-filename="/a/home/cc/students/cs/barakitk/Documents/Cage_16_Blue.png"
   inkscape:export-xdpi="90"
   inkscape:export-ydpi="90"
   sodipodi:version="0.32"
   inkscape:output_extension="org.inkscape.output.svg.inkscape"
   viewBox="0 0 96 96"
   xmlns:inkscape="http://www.inkscape.org/namespaces/inkscape"
   xmlns:sodipodi="http://sodipodi.sourceforge.net/DTD/sodipodi-0.dtd"
   xmlns="http://www.w3.org/2000/svg"
   xmlns:svg="http://www.w3.org/2000/svg"
   xmlns:rdf="http://www.w3.org/1999/02/22-rdf-syntax-ns#"
   xmlns:cc="http://creativecommons.org/ns#"
   xmlns:dc="http://purl.org/dc/elements/1.1/">
  <defs
     id="defs4" />
  <sodipodi:namedview
     id="base"
     pagecolor="#ffffff"
     bordercolor="#dadada"
     borderopacity="1"
     inkscape:pageopacity="0.0"
     inkscape:pageshadow="2"
     inkscape:zoom="1.1268467"
     inkscape:cx="8.8743216"
     inkscape:cy="84.306055"
     inkscape:document-units="px"
     inkscape:current-layer="layer1"
     showgrid="false"
     objecttolerance="20"
     inkscape:object-nodes="false"
     inkscape:object-paths="false"
     inkscape:snap-global="true"
     inkscape:snap-nodes="false"
     inkscape:snap-center="false"
     inkscape:window-width="1614"
     inkscape:window-height="730"
     inkscape:window-x="327"
     inkscape:window-y="55"
     inkscape:window-maximized="0"
     showborder="true"
     borderlayer="true"
     inkscape:showpageshadow="false"
     inkscape:snap-bbox="true"
     showguides="true"
     inkscape:pagecheckerboard="0"
     inkscape:deskcolor="#d1d1d1">
    <inkscape:grid
       type="xygrid"
       id="grid4140"
       empspacing="5"
       visible="false"
       enabled="true"
       snapvisiblegridlinesonly="true"
       originx="0"
       originy="0"
       spacingy="1"
       spacingx="1"
       units="px" />
  </sodipodi:namedview>
  <metadata
     id="metadata7">
    <rdf:RDF>
      <cc:Work
         rdf:about="">
        <dc:format>image/svg+xml</dc:format>
        <dc:type
           rdf:resource="http://purl.org/dc/dcmitype/StillImage" />
        <dc:creator>
          <cc:Agent>
            <dc:title>Barak Itkin &lt;lightningismyname@gmail.com&gt;</dc:title>
          </cc:Agent>
        </dc:creator>
        <dc:rights>
          <cc:Agent>
            <dc:title>Barak Itkin &lt;lightningismyname@gmail.com&gt;</dc:title>
          </cc:Agent>
        </dc:rights>
        <dc:date>July 2010</dc:date>
        <cc:license
           rdf:resource="" />
      </cc:Work>
    </rdf:RDF>
  </metadata>
  <g
     inkscape:label="Layer 1"
     inkscape:groupmode="layer"
     id="layer1"
     transform="translate(0,-1036.3622)">
    <g
       id="g43"
       transform="matrix(-0.26717864,0,0,0.26717864,133.28308,785.93812)">
      <path
         id="path27"
         d="m 470.90665,1236.7916 c -26.11333,-37.2358 -14.86533,-63.5142 -14.46266,-65.6796 30.22266,-49.7773 23.112,-98.6666 -3.39067,-142.292 -4.26933,-11.0253 -16.78666,-22.64 -26.92666,-25.3173 -71.50934,-17.97599 -143.01733,-15.48399 -214.52667,7.4747 -10.13733,3.4186 -23.61466,14.9466 -28.83866,25.1253 -22.51333,45.552 -28.124,91.1053 -16.83333,136.6573 2.62133,10.1827 15.328,20.4015 27.11866,22.4531 74.92933,12.2229 149.86,14.5536 224.78933,6.9921 22.00533,15.1506 40.56133,27.4443 53.07066,34.5864"
         style="fill:#ffffff;fill-opacity:1;fill-rule:nonzero;stroke:none;stroke-width:0.133333" />
      <path
         id="path28"
         d="m 418.89466,1198.0787 1.20933,0.8333 c 16.19867,11.1506 28.97467,19.6828 39.01333,26.0463 -9.45466,-18.7 -11.87866,-37.4889 -6.76133,-54.0969 0.0827,-0.264 0.14667,-0.4667 0.18267,-0.6054 l 0.13333,-0.7186 0.35333,-0.5014 c 26.70933,-43.992 25.56933,-90.468 -3.39066,-138.1386 l -0.31067,-0.6334 c -3.72533,-9.6186 -15.268,-20.5306 -24.21867,-22.8946 -30.89066,-7.76403 -62.25733,-11.70803 -93.18399,-11.70803 -39.504,0 -79.57467,6.43463 -119.09867,19.12533 -9.22933,3.112 -21.888,14.152 -26.50266,23.1427 -21.95067,44.4146 -27.51467,89.4733 -16.50934,133.8693 2.156,8.3721 13.56134,17.6721 23.92134,19.4732 45.82266,7.476 92.33066,11.2683 138.19199,11.2683 28.36933,0 57.14,-1.4522 85.51067,-4.3136 z m 65.54799,51.0463 -15.51866,-8.8599 c -11.236,-6.4129 -27.828,-17.2104 -52.148,-33.9333 -28.16267,2.7932 -56.70267,4.2084 -84.852,4.2084 -46.29066,0 -93.232,-3.8282 -139.52133,-11.3787 -13.53066,-2.3547 -27.408,-13.9844 -30.348,-25.4041 -11.48133,-46.3174 -5.71866,-93.216 17.12,-139.4267 5.612,-10.9333 19.86267,-23.3387 31.14667,-27.1427 40.372,-12.96263 81.26533,-19.52663 121.6,-19.52663 31.58399,0 63.60666,4.02534 95.17999,11.96267 11.34667,2.99466 24.77067,15.48936 29.548,27.41196 30.35467,50.152 31.536,99.156 3.50667,145.6694 -0.0453,0.156 -0.0973,0.3253 -0.15467,0.5133 -5.668,18.3917 -0.63333,40.1532 14.18,61.2761 l 10.26133,14.6302"
         style="fill:#211d1d;fill-opacity:1;fill-rule:nonzero;stroke:none;stroke-width:0.133333" />
    </g>
  </g>
</svg>
