<?xml version="1.0" encoding="UTF-8" standalone="no"?>
<!-- Created with Inkscape (http://www.inkscape.org/) -->

<svg
   width="96"
   height="96"
   id="svg2"
   version="1.1"
   inkscape:version="1.4.2 (ebf0e940d0, 2025-05-08)"
   sodipodi:docname="17.svg"
   inkscape:export-filename="/a/home/cc/students/cs/barakitk/Documents/Cage_16_Blue.png"
   inkscape:export-xdpi="90"
   inkscape:export-ydpi="90"
   sodipodi:version="0.32"
   inkscape:output_extension="org.inkscape.output.svg.inkscape"
   viewBox="0 0 96 96"
   xmlns:inkscape="http://www.inkscape.org/namespaces/inkscape"
   xmlns:sodipodi="http://sodipodi.sourceforge.net/DTD/sodipodi-0.dtd"
   xmlns="http://www.w3.org/2000/svg"
   xmlns:svg="http://www.w3.org/2000/svg"
   xmlns:rdf="http://www.w3.org/1999/02/22-rdf-syntax-ns#"
   xmlns:cc="http://creativecommons.org/ns#"
   xmlns:dc="http://purl.org/dc/elements/1.1/">
  <defs
     id="defs4" />
  <sodipodi:namedview
     id="base"
     pagecolor="#ffffff"
     bordercolor="#dadada"
     borderopacity="1"
     inkscape:pageopacity="0.0"
     inkscape:pageshadow="2"
     inkscape:zoom="1.1268467"
     inkscape:cx="8.8743216"
     inkscape:cy="84.306055"
     inkscape:document-units="px"
     inkscape:current-layer="layer1"
     showgrid="false"
     objecttolerance="20"
     inkscape:object-nodes="false"
     inkscape:object-paths="false"
     inkscape:snap-global="true"
     inkscape:snap-nodes="false"
     inkscape:snap-center="false"
     inkscape:window-width="1614"
     inkscape:window-height="730"
     inkscape:window-x="327"
     inkscape:window-y="55"
     inkscape:window-maximized="0"
     showborder="true"
     borderlayer="true"
     inkscape:showpageshadow="false"
     inkscape:snap-bbox="true"
     showguides="true"
     inkscape:pagecheckerboard="0"
     inkscape:deskcolor="#d1d1d1">
    <inkscape:grid
       type="xygrid"
       id="grid4140"
       empspacing="5"
       visible="false"
       enabled="true"
       snapvisiblegridlinesonly="true"
       originx="0"
       originy="0"
       spacingy="1"
       spacingx="1"
       units="px" />
  </sodipodi:namedview>
  <metadata
     id="metadata7">
    <rdf:RDF>
      <cc:Work
         rdf:about="">
        <dc:format>image/svg+xml</dc:format>
        <dc:type
           rdf:resource="http://purl.org/dc/dcmitype/StillImage" />
        <dc:creator>
          <cc:Agent>
            <dc:title>Barak Itkin &lt;lightningismyname@gmail.com&gt;</dc:title>
          </cc:Agent>
        </dc:creator>
        <dc:rights>
          <cc:Agent>
            <dc:title>Barak Itkin &lt;lightningismyname@gmail.com&gt;</dc:title>
          </cc:Agent>
        </dc:rights>
        <dc:date>July 2010</dc:date>
        <cc:license
           rdf:resource="" />
      </cc:Work>
    </rdf:RDF>
  </metadata>
  <g
     inkscape:label="Layer 1"
     inkscape:groupmode="layer"
     id="layer1"
     transform="translate(0,-1036.3622)">
    <g
       id="g45"
       transform="matrix(0.28811436,0,0,0.28811436,-147.56146,845.42894)">
      <path
         id="path21"
         d="m 809.99598,809.40938 c 0,59.416 -63.81467,107.58533 -142.53333,107.58533 -78.71866,0 -142.53333,-48.16933 -142.53333,-107.58533 0,-59.41733 63.81467,-107.584 142.53333,-107.584 78.71866,0 142.53333,48.16667 142.53333,107.584"
         style="fill:#ffffff;fill-opacity:1;fill-rule:nonzero;stroke:none;stroke-width:0.133333" />
      <path
         id="path22"
         d="m 667.46265,705.82538 c -76.388,0 -138.53333,46.468 -138.53333,103.584 0,57.11733 62.14533,103.58533 138.53333,103.58533 76.388,0 138.53333,-46.468 138.53333,-103.58533 0,-57.116 -62.14533,-103.584 -138.53333,-103.584 z m 0,215.16933 c -80.79866,0 -146.53333,-50.05733 -146.53333,-111.58533 0,-61.528 65.73467,-111.584 146.53333,-111.584 80.79866,0 146.53333,50.056 146.53333,111.584 0,61.528 -65.73467,111.58533 -146.53333,111.58533"
         style="fill:#211d1d;fill-opacity:1;fill-rule:nonzero;stroke:none;stroke-width:0.133333" />
      <path
         id="path23"
         d="m 810.61465,916.99471 c 0,11.052 -12.12667,20.01333 -27.08667,20.01333 -14.96,0 -27.088,-8.96133 -27.088,-20.01333 0,-11.052 12.128,-20.01333 27.088,-20.01333 14.96,0 27.08667,8.96133 27.08667,20.01333"
         style="fill:#ffffff;fill-opacity:1;fill-rule:nonzero;stroke:none;stroke-width:0.133333" />
      <path
         id="path24"
         d="m 783.52798,900.98138 c -12.73067,0 -23.088,7.184 -23.088,16.01333 0,8.82933 10.35733,16.01333 23.088,16.01333 12.73067,0 23.08667,-7.184 23.08667,-16.01333 0,-8.82933 -10.356,-16.01333 -23.08667,-16.01333 z m 0,40.02666 c -17.14133,0 -31.088,-10.772 -31.088,-24.01333 0,-13.24133 13.94667,-24.01333 31.088,-24.01333 17.14133,0 31.08667,10.772 31.08667,24.01333 0,13.24133 -13.94534,24.01333 -31.08667,24.01333"
         style="fill:#211d1d;fill-opacity:1;fill-rule:nonzero;stroke:none;stroke-width:0.133333" />
      <path
         id="path25"
         d="m 836.05731,955.09071 c 0,6.448 -7.07466,11.67733 -15.80133,11.67733 -8.728,0 -15.80267,-5.22933 -15.80267,-11.67733 0,-6.44533 7.07467,-11.67333 15.80267,-11.67333 8.72667,0 15.80133,5.228 15.80133,11.67333"
         style="fill:#ffffff;fill-opacity:1;fill-rule:nonzero;stroke:none;stroke-width:0.133333" />
      <path
         id="path26"
         d="m 820.25598,947.41738 c -6.39733,0 -11.80267,3.51333 -11.80267,7.67333 0,4.16133 5.40534,7.67733 11.80267,7.67733 6.39733,0 11.80133,-3.516 11.80133,-7.67733 0,-4.16 -5.404,-7.67333 -11.80133,-7.67333 z m 0,23.35066 c -10.91867,0 -19.80267,-7.032 -19.80267,-15.67733 0,-8.64267 8.884,-15.67333 19.80267,-15.67333 10.91867,0 19.80133,7.03066 19.80133,15.67333 0,8.64533 -8.88266,15.67733 -19.80133,15.67733"
         style="fill:#211d1d;fill-opacity:1;fill-rule:nonzero;stroke:none;stroke-width:0.133333" />
    </g>
  </g>
</svg>
