<?xml version="1.0" encoding="UTF-8" standalone="no"?>
<!-- Created with Inkscape (http://www.inkscape.org/) -->

<svg
   width="96"
   height="96"
   id="svg2"
   version="1.1"
   inkscape:version="1.4.2 (ebf0e940d0, 2025-05-08)"
   sodipodi:docname="26.svg"
   inkscape:export-filename="/a/home/cc/students/cs/barakitk/Documents/Cage_16_Blue.png"
   inkscape:export-xdpi="90"
   inkscape:export-ydpi="90"
   sodipodi:version="0.32"
   inkscape:output_extension="org.inkscape.output.svg.inkscape"
   viewBox="0 0 96 96"
   xmlns:inkscape="http://www.inkscape.org/namespaces/inkscape"
   xmlns:sodipodi="http://sodipodi.sourceforge.net/DTD/sodipodi-0.dtd"
   xmlns="http://www.w3.org/2000/svg"
   xmlns:svg="http://www.w3.org/2000/svg"
   xmlns:rdf="http://www.w3.org/1999/02/22-rdf-syntax-ns#"
   xmlns:cc="http://creativecommons.org/ns#"
   xmlns:dc="http://purl.org/dc/elements/1.1/">
  <defs
     id="defs4">
    <linearGradient
       x1="0"
       y1="0"
       x2="1"
       y2="0"
       gradientUnits="userSpaceOnUse"
       gradientTransform="matrix(254.53581,0,0,254.53581,-119.99911,1094.6303)"
       spreadMethod="pad"
       id="linearGradient9">
      <stop
         style="stop-opacity:1;stop-color:#68ff3f"
         offset="0"
         id="stop8" />
      <stop
         style="stop-opacity:1;stop-color:#2ed03b"
         offset="1"
         id="stop9" />
    </linearGradient>
    <linearGradient
       x1="0"
       y1="0"
       x2="1"
       y2="0"
       gradientUnits="userSpaceOnUse"
       gradientTransform="matrix(254.53581,0,0,254.53581,-97.999106,1121.6303)"
       spreadMethod="pad"
       id="linearGradient9-3">
      <stop
         style="stop-opacity:1;stop-color:#68ff3f"
         offset="0"
         id="stop8-6" />
      <stop
         style="stop-opacity:1;stop-color:#2ed03b"
         offset="1"
         id="stop9-7" />
    </linearGradient>
    <clipPath
       clipPathUnits="userSpaceOnUse"
       id="clipPath12">
      <path
         d="M 0,980 H 1400 V 0 H 0 Z"
         transform="matrix(1.3333333,0,0,-1.3333333,0,1306.6667)"
         id="path12" />
    </clipPath>
    <clipPath
       clipPathUnits="userSpaceOnUse"
       id="clipPath10">
      <path
         d="M 99.2002,920.226 H 274.521 V 796.94 H 99.2002 Z"
         transform="translate(-193.24761,-845.04442)"
         id="path10" />
    </clipPath>
    <linearGradient
       x1="0"
       y1="0"
       x2="1"
       y2="0"
       gradientUnits="userSpaceOnUse"
       gradientTransform="matrix(261.29105,0,0,-261.29105,346.98828,817.03027)"
       spreadMethod="pad"
       id="linearGradient5">
      <stop
         style="stop-opacity:1;stop-color:#fffb6a"
         offset="0"
         id="stop1" />
      <stop
         style="stop-opacity:1;stop-color:#fffb6a"
         offset="0.19814544"
         id="stop2" />
      <stop
         style="stop-opacity:1;stop-color:#ffbe15"
         offset="0.889246"
         id="stop3" />
      <stop
         style="stop-opacity:1;stop-color:#ffbe15"
         offset="0.97774809"
         id="stop4" />
      <stop
         style="stop-opacity:1;stop-color:#ffbe15"
         offset="1"
         id="stop5" />
    </linearGradient>
    <clipPath
       clipPathUnits="userSpaceOnUse"
       id="clipPath8">
      <path
         d="M 0,980 H 1400 V 0 H 0 Z"
         transform="matrix(1.3333333,0,0,-1.3333333,0,1306.6667)"
         id="path8" />
    </clipPath>
    <clipPath
       clipPathUnits="userSpaceOnUse"
       id="clipPath6">
      <path
         d="M 365.75,902.561 H 638.573 V 839.198 H 365.75 Z"
         transform="translate(-638.57282,-839.78372)"
         id="path6" />
    </clipPath>
    <linearGradient
       x1="0"
       y1="0"
       x2="1"
       y2="0"
       gradientUnits="userSpaceOnUse"
       gradientTransform="matrix(271.72168,0,0,-271.72168,715.22656,817.03076)"
       spreadMethod="pad"
       id="linearGradient16">
      <stop
         style="stop-opacity:1;stop-color:#e90006"
         offset="0"
         id="stop12" />
      <stop
         style="stop-opacity:1;stop-color:#e90006"
         offset="0.19814544"
         id="stop13" />
      <stop
         style="stop-opacity:1;stop-color:#ff0007"
         offset="0.889246"
         id="stop14" />
      <stop
         style="stop-opacity:1;stop-color:#ff0007"
         offset="0.97774809"
         id="stop15" />
      <stop
         style="stop-opacity:1;stop-color:#ff0007"
         offset="1"
         id="stop16" />
    </linearGradient>
    <clipPath
       clipPathUnits="userSpaceOnUse"
       id="clipPath19">
      <path
         d="M 0,980 H 1400 V 0 H 0 Z"
         transform="matrix(1.3333333,0,0,-1.3333333,0,1306.6667)"
         id="path19" />
    </clipPath>
    <clipPath
       clipPathUnits="userSpaceOnUse"
       id="clipPath17">
      <path
         d="M 737.719,911.851 H 954.151 V 782.664 H 737.719 Z"
         transform="translate(-746.75002,-782.66362)"
         id="path17" />
    </clipPath>
    <linearGradient
       x1="0"
       y1="0"
       x2="1"
       y2="0"
       gradientUnits="userSpaceOnUse"
       gradientTransform="matrix(267.77539,0,0,-267.77539,1040.6816,836.58887)"
       spreadMethod="pad"
       id="linearGradient23">
      <stop
         style="stop-opacity:1;stop-color:#94c5ff"
         offset="0"
         id="stop19" />
      <stop
         style="stop-opacity:1;stop-color:#94c5ff"
         offset="0.19814544"
         id="stop20" />
      <stop
         style="stop-opacity:1;stop-color:#54a2ff"
         offset="0.889246"
         id="stop21" />
      <stop
         style="stop-opacity:1;stop-color:#54a2ff"
         offset="0.97774809"
         id="stop22" />
      <stop
         style="stop-opacity:1;stop-color:#54a2ff"
         offset="1"
         id="stop23" />
    </linearGradient>
    <clipPath
       clipPathUnits="userSpaceOnUse"
       id="clipPath26">
      <path
         d="M 0,980 H 1400 V 0 H 0 Z"
         transform="matrix(1.3333333,0,0,-1.3333333,0,1306.6667)"
         id="path26" />
    </clipPath>
    <clipPath
       clipPathUnits="userSpaceOnUse"
       id="clipPath24">
      <path
         d="m 1059.58,908.892 h 229.98 V 800.731 h -229.98 z"
         transform="translate(-1253.4063,-872.74072)"
         id="path24" />
    </clipPath>
    <linearGradient
       x1="0"
       y1="0"
       x2="1"
       y2="0"
       gradientUnits="userSpaceOnUse"
       gradientTransform="matrix(42.37793,0,0,-42.37793,1239.8672,741.98535)"
       spreadMethod="pad"
       id="linearGradient30">
      <stop
         style="stop-opacity:1;stop-color:#94c5ff"
         offset="0"
         id="stop26" />
      <stop
         style="stop-opacity:1;stop-color:#94c5ff"
         offset="0.19814544"
         id="stop27" />
      <stop
         style="stop-opacity:1;stop-color:#54a2ff"
         offset="0.889246"
         id="stop28" />
      <stop
         style="stop-opacity:1;stop-color:#54a2ff"
         offset="0.97774809"
         id="stop29" />
      <stop
         style="stop-opacity:1;stop-color:#54a2ff"
         offset="1"
         id="stop30" />
    </linearGradient>
    <linearGradient
       x1="0"
       y1="0"
       x2="1"
       y2="0"
       gradientUnits="userSpaceOnUse"
       gradientTransform="matrix(16.634766,0,0,-16.634766,1273.9277,712.20654)"
       spreadMethod="pad"
       id="linearGradient35">
      <stop
         style="stop-opacity:1;stop-color:#94c5ff"
         offset="0"
         id="stop31" />
      <stop
         style="stop-opacity:1;stop-color:#94c5ff"
         offset="0.19814544"
         id="stop32" />
      <stop
         style="stop-opacity:1;stop-color:#54a2ff"
         offset="0.889246"
         id="stop33" />
      <stop
         style="stop-opacity:1;stop-color:#54a2ff"
         offset="0.97774809"
         id="stop34" />
      <stop
         style="stop-opacity:1;stop-color:#54a2ff"
         offset="1"
         id="stop35" />
    </linearGradient>
  </defs>
  <sodipodi:namedview
     id="base"
     pagecolor="#ffffff"
     bordercolor="#dadada"
     borderopacity="1"
     inkscape:pageopacity="0.0"
     inkscape:pageshadow="2"
     inkscape:zoom="1.1268467"
     inkscape:cx="8.4306055"
     inkscape:cy="83.862339"
     inkscape:document-units="px"
     inkscape:current-layer="layer1"
     showgrid="false"
     objecttolerance="20"
     inkscape:object-nodes="false"
     inkscape:object-paths="false"
     inkscape:snap-global="true"
     inkscape:snap-nodes="false"
     inkscape:snap-center="false"
     inkscape:window-width="1533"
     inkscape:window-height="751"
     inkscape:window-x="760"
     inkscape:window-y="180"
     inkscape:window-maximized="0"
     showborder="true"
     borderlayer="true"
     inkscape:showpageshadow="false"
     inkscape:snap-bbox="true"
     showguides="true"
     inkscape:pagecheckerboard="0"
     inkscape:deskcolor="#d1d1d1">
    <inkscape:grid
       type="xygrid"
       id="grid4140"
       empspacing="5"
       visible="false"
       enabled="true"
       snapvisiblegridlinesonly="true"
       originx="0"
       originy="0"
       spacingy="1"
       spacingx="1"
       units="px" />
  </sodipodi:namedview>
  <metadata
     id="metadata7">
    <rdf:RDF>
      <cc:Work
         rdf:about="">
        <dc:format>image/svg+xml</dc:format>
        <dc:type
           rdf:resource="http://purl.org/dc/dcmitype/StillImage" />
        <dc:creator>
          <cc:Agent>
            <dc:title>Barak Itkin &lt;lightningismyname@gmail.com&gt;</dc:title>
          </cc:Agent>
        </dc:creator>
        <dc:rights>
          <cc:Agent>
            <dc:title>Barak Itkin &lt;lightningismyname@gmail.com&gt;</dc:title>
          </cc:Agent>
        </dc:rights>
        <dc:date>July 2010</dc:date>
        <cc:license
           rdf:resource="" />
      </cc:Work>
    </rdf:RDF>
  </metadata>
  <g
     inkscape:label="Layer 1"
     inkscape:groupmode="layer"
     id="layer1"
     transform="translate(0,-1036.3622)">
    <g
       id="g88"
       transform="matrix(0.24726161,0,0,0.24726161,-339.03734,1034.1035)">
      <path
         id="path23"
         d="m 1144.904,906.385 c -5.957,3.23 -12.782,5.066 -20.034,5.066 v 0 c -20.052,0 -36.819,-14.024 -41.05,-32.796 v 0 c -0.35,0.009 -0.695,0.027 -1.044,0.027 v 0 c -23.247,0 -42.094,-18.846 -42.094,-42.093 v 0 c 0,-21.455 16.057,-39.149 36.806,-41.75 v 0 c 3.645,-19.539 20.773,-34.333 41.367,-34.333 v 0 c 9.207,0 17.716,2.964 24.645,7.98 v 0 c 7.708,-9.79 19.656,-16.083 33.083,-16.083 v 0 c 11.544,0 22.002,4.651 29.606,12.178 v 0 c 5.479,-2.61 11.609,-4.075 18.08,-4.075 v 0 c 20.483,0 37.54,14.632 41.311,34.01 v 0 c 0.262,-0.005 0.519,-0.02 0.783,-0.02 v 0 c 23.247,0 42.094,18.846 42.094,42.093 v 0 c 0,23.247 -18.847,42.093 -42.094,42.093 v 0 c -0.958,0 -1.904,-0.044 -2.846,-0.107 v 0 c -6.173,15.902 -21.714,27.086 -39.774,26.859 v 0 c -4.537,-0.056 -8.892,-0.837 -12.969,-2.216 v 0 c -7.641,10.628 -20.103,17.557 -34.191,17.557 v 0 c -12.635,0 -23.962,-5.575 -31.679,-14.39"
         transform="matrix(1.3333333,0,0,-1.3333333,0,1306.6667)"
         style="fill:url(#linearGradient23);stroke:none" />
      <g
         opacity="0.600006"
         id="g25"
         clip-path="url(#clipPath26)">
        <path
           d="m 0,0 c -0.822,0 -1.636,-0.038 -2.444,-0.092 -5.303,13.657 -18.649,23.262 -34.16,23.068 -3.896,-0.049 -7.637,-0.719 -11.138,-1.904 -6.563,9.128 -17.266,15.079 -29.366,15.079 -10.852,0 -20.58,-4.788 -27.205,-12.359 -5.118,2.775 -10.98,4.352 -17.209,4.352 -17.221,0 -31.62,-12.045 -35.255,-28.167 -0.299,0.007 -0.596,0.023 -0.897,0.023 -19.967,0 -36.152,-16.187 -36.152,-36.152 0,-18.427 13.79,-33.622 31.61,-35.858 25.342,1.65 140.946,55.791 198.368,35.858 C 36.152,-16.187 19.967,0 0,0"
           style="fill:#ffffff;fill-opacity:1;fill-rule:nonzero;stroke:none"
           transform="matrix(1.3333333,0,0,-1.3333333,1671.2084,143.0124)"
           clip-path="url(#clipPath24)"
           id="path25" />
      </g>
      <path
         id="path30"
         d="m 1239.867,741.986 c 0,-11.703 9.488,-21.189 21.19,-21.189 v 0 c 11.701,0 21.188,9.486 21.188,21.189 v 0 c 0,11.702 -9.487,21.188 -21.188,21.188 v 0 c -11.702,0 -21.19,-9.486 -21.19,-21.188"
         transform="matrix(1.3333333,0,0,-1.3333333,0,1306.6667)"
         style="fill:url(#linearGradient30);stroke:none" />
      <path
         id="path35"
         d="m 1273.927,712.207 c 0,-4.593 3.725,-8.318 8.318,-8.318 v 0 c 4.594,0 8.317,3.725 8.317,8.318 v 0 c 0,4.593 -3.723,8.317 -8.317,8.317 v 0 c -4.593,0 -8.318,-3.724 -8.318,-8.317"
         transform="matrix(1.3333333,0,0,-1.3333333,0,1306.6667)"
         style="fill:url(#linearGradient35);stroke:none" />
    </g>
  </g>
</svg>
