<?xml version="1.0" encoding="UTF-8" standalone="no"?>
<!-- Created with Inkscape (http://www.inkscape.org/) -->

<svg
   width="96"
   height="96"
   id="svg2"
   version="1.1"
   inkscape:version="1.4.2 (ebf0e940d0, 2025-05-08)"
   sodipodi:docname="3.svg"
   inkscape:export-filename="/a/home/cc/students/cs/barakitk/Documents/Cage_16_Blue.png"
   inkscape:export-xdpi="90"
   inkscape:export-ydpi="90"
   sodipodi:version="0.32"
   inkscape:output_extension="org.inkscape.output.svg.inkscape"
   viewBox="0 0 96 96"
   xmlns:inkscape="http://www.inkscape.org/namespaces/inkscape"
   xmlns:sodipodi="http://sodipodi.sourceforge.net/DTD/sodipodi-0.dtd"
   xmlns="http://www.w3.org/2000/svg"
   xmlns:svg="http://www.w3.org/2000/svg"
   xmlns:rdf="http://www.w3.org/1999/02/22-rdf-syntax-ns#"
   xmlns:cc="http://creativecommons.org/ns#"
   xmlns:dc="http://purl.org/dc/elements/1.1/">
  <defs
     id="defs4" />
  <sodipodi:namedview
     id="base"
     pagecolor="#ffffff"
     bordercolor="#dadada"
     borderopacity="1"
     inkscape:pageopacity="0.0"
     inkscape:pageshadow="2"
     inkscape:zoom="3.1872038"
     inkscape:cx="8.7851302"
     inkscape:cy="9.0988849"
     inkscape:document-units="px"
     inkscape:current-layer="layer1"
     showgrid="false"
     objecttolerance="20"
     inkscape:object-nodes="false"
     inkscape:object-paths="false"
     inkscape:snap-global="true"
     inkscape:snap-nodes="false"
     inkscape:snap-center="false"
     inkscape:window-width="1614"
     inkscape:window-height="730"
     inkscape:window-x="327"
     inkscape:window-y="55"
     inkscape:window-maximized="0"
     showborder="true"
     borderlayer="true"
     inkscape:showpageshadow="false"
     inkscape:snap-bbox="true"
     showguides="true"
     inkscape:pagecheckerboard="0"
     inkscape:deskcolor="#d1d1d1">
    <inkscape:grid
       type="xygrid"
       id="grid4140"
       empspacing="5"
       visible="false"
       enabled="true"
       snapvisiblegridlinesonly="true"
       originx="0"
       originy="0"
       spacingy="1"
       spacingx="1"
       units="px" />
  </sodipodi:namedview>
  <metadata
     id="metadata7">
    <rdf:RDF>
      <cc:Work
         rdf:about="">
        <dc:format>image/svg+xml</dc:format>
        <dc:type
           rdf:resource="http://purl.org/dc/dcmitype/StillImage" />
        <dc:creator>
          <cc:Agent>
            <dc:title>Barak Itkin &lt;lightningismyname@gmail.com&gt;</dc:title>
          </cc:Agent>
        </dc:creator>
        <dc:rights>
          <cc:Agent>
            <dc:title>Barak Itkin &lt;lightningismyname@gmail.com&gt;</dc:title>
          </cc:Agent>
        </dc:rights>
        <dc:date>July 2010</dc:date>
        <cc:license
           rdf:resource="" />
      </cc:Work>
    </rdf:RDF>
  </metadata>
  <g
     inkscape:label="Layer 1"
     inkscape:groupmode="layer"
     id="layer1"
     transform="translate(0,-1036.3622)">
    <g
       id="g1"
       transform="matrix(0.28490599,0,0,0.28490599,44.024377,781.11625)">
      <path
         id="path33"
         d="m 91.632,1018.6928 c 0.015,-0.444 0.035,-0.888 0.035,-1.336 0,-23.56397 -19.104,-42.66657 -42.6666,-42.66657 -7.436,0 -14.424,1.9053 -20.5107,5.2493 -7.0067,-13.9773 -21.4573,-23.57733 -38.156,-23.57733 -19.1253,0 -35.3107,12.58403 -40.7293,29.92263 -6.356,-3.7573 -13.7667,-5.9226 -21.684,-5.9226 -23.564,0 -42.66669,19.1026 -42.66669,42.66657 0,6.5467 1.47867,12.7454 4.11333,18.2894 -12.21733,7.5053 -20.36666,20.988 -20.36666,36.3773 0,23.564 19.10266,42.6667 42.66662,42.6667 3.2174,0 6.3454,-0.3667 9.3587,-1.0427 -0.01,0.3467 -0.025,0.6933 -0.025,1.0427 0,23.564 19.1026,42.6665 42.6666,42.6665 17.2187,0 32.044,-10.2052 38.7854,-24.8932 7.7506,7.9505 18.5693,12.8932 30.548,12.8932 23.5626,0 42.6666,-19.1025 42.6666,-42.6665 0,-2.0627 -0.156,-4.088 -0.4386,-6.072 1.888,0.2573 3.8133,0.4 5.772,0.4 23.5626,0 42.6666,-19.1027 42.6666,-42.6667 0,-19.8933 -13.6146,-36.6053 -32.0346,-41.3307"
         style="fill:#ffffff;fill-opacity:1;fill-rule:nonzero;stroke:none;stroke-width:0.133333" />
      <path
         id="path34"
         d="m -74.8614,1114.2968 -0.1266,5.5347 c -0.01,0.176 -0.012,0.3533 -0.012,0.5307 0,21.3197 17.3453,38.6665 38.6666,38.6665 15.0614,0 28.8587,-8.8557 35.1507,-22.5625 l 2.4307,-5.2963 4.0693,4.1735 c 7.3453,7.5358 17.176,11.6853 27.6827,11.6853 21.32,0 38.6666,-17.3465 38.6666,-38.6665 0,-1.8027 -0.1346,-3.6547 -0.3973,-5.508 l -0.7467,-5.24 5.2454,0.7133 c 1.7733,0.24 3.5333,0.3627 5.232,0.3627 21.32,0 38.6666,-17.3467 38.6666,-38.6667 0,-17.6693 -11.9373,-33.072 -29.028,-37.456 l -3.108,-0.7973 0.1134,-3.496 c 0.011,-0.3054 0.023,-0.6107 0.023,-0.9174 0,-21.31997 -17.3466,-38.66657 -38.6666,-38.66657 -6.496,0 -12.9227,1.644 -18.5854,4.7546 l -3.64,1.9987 -1.8613,-3.712 c -6.608,-13.18 -19.8573,-21.3693 -34.58,-21.3693 -17.008,0 -31.8427,10.8973 -36.912,27.116 l -1.5067,4.82 -4.348,-2.5707 c -5.9373,-3.5093 -12.7293,-5.3653 -19.6466,-5.3653 -21.32,0 -38.66669,17.34657 -38.66669,38.66657 0,5.7947 1.25333,11.3694 3.72667,16.572 l 1.54133,3.244 -3.06133,1.8814 c -11.56,7.1013 -18.46,19.4266 -18.46,32.9693 0,21.32 17.34533,38.6667 38.66662,38.6667 2.8307,0 5.684,-0.3174 8.484,-0.9467 z m 38.528,52.7319 c -24.496,0 -44.6453,-18.9708 -46.524,-42.9919 -1.8226,0.216 -3.6533,0.3254 -5.476,0.3254 -25.73196,0 -46.66662,-20.9347 -46.66662,-46.6667 0,-15.18 7.18,-29.0893 19.376,-37.8587 -2.07334,-5.3506 -3.12267,-10.9893 -3.12267,-16.808 0,-25.73197 20.93467,-46.66657 46.66669,-46.66657 6.7533,0 13.4133,1.4666 19.5066,4.272 7.2854,-17.0894 23.98,-28.27203 42.9067,-28.27203 16.4347,0 31.3467,8.45203 39.8027,22.30533 5.9146,-2.612 12.3613,-3.9773 18.864,-3.9773 25.176,0 45.7613,20.04 46.6373,45.00927 19.0093,6.2533 32.0293,24.0533 32.0293,44.324 0,25.732 -20.936,46.6667 -46.6666,46.6667 -0.452,0 -0.908,-0.01 -1.3667,-0.021 0.023,0.5667 0.033,1.132 0.033,1.6934 0,25.7316 -20.936,46.6665 -46.6666,46.6665 -10.8734,0 -21.1467,-3.6812 -29.4414,-10.4625 -8.3933,13.7985 -23.5253,22.4625 -39.892,22.4625"
         style="fill:#211d1d;fill-opacity:1;fill-rule:nonzero;stroke:none;stroke-width:0.133333" />
      <path
         id="path35"
         d="m 127.2653,1137.0194 c 0,12.1494 -9.8507,22 -22,22 -12.1507,0 -22,-9.8506 -22,-22 0,-12.1492 9.8493,-21.9999 22,-21.9999 12.1493,0 22,9.8507 22,21.9999"
         style="fill:#ffffff;fill-opacity:1;fill-rule:nonzero;stroke:none;stroke-width:0.133333" />
      <path
         id="path36"
         d="m 105.2653,1119.0195 c -9.9267,0 -18,8.0747 -18,17.9999 0,9.9254 8.0733,18 18,18 9.9253,0 18,-8.0746 18,-18 0,-9.9252 -8.0747,-17.9999 -18,-17.9999 z m 0,43.9999 c -14.336,0 -26,-11.6642 -26,-26 0,-14.3359 11.664,-25.9999 26,-25.9999 14.336,0 26,11.664 26,25.9999 0,14.3358 -11.664,26 -26,26"
         style="fill:#211d1d;fill-opacity:1;fill-rule:nonzero;stroke:none;stroke-width:0.133333" />
      <path
         id="path37"
         d="m 149.2653,1174.5287 c 0,5.8 -4.7013,10.5 -10.5,10.5 -5.8,0 -10.5,-4.7 -10.5,-10.5 0,-5.8 4.7,-10.5 10.5,-10.5 5.7987,0 10.5,4.7 10.5,10.5"
         style="fill:#ffffff;fill-opacity:1;fill-rule:nonzero;stroke:none;stroke-width:0.133333" />
      <path
         id="path38"
         d="m 138.7653,1168.0287 c -3.5853,0 -6.5,2.9147 -6.5,6.5 0,3.5839 2.9147,6.5 6.5,6.5 3.584,0 6.5,-2.9161 6.5,-6.5 0,-3.5853 -2.916,-6.5 -6.5,-6.5 z m 0,21 c -7.9947,0 -14.5,-6.5052 -14.5,-14.5 0,-7.9948 6.5053,-14.5 14.5,-14.5 7.9947,0 14.5,6.5052 14.5,14.5 0,7.9948 -6.5053,14.5 -14.5,14.5"
         style="fill:#211d1d;fill-opacity:1;fill-rule:nonzero;stroke:none;stroke-width:0.133333" />
    </g>
  </g>
</svg>
