<?xml version="1.0" encoding="UTF-8" standalone="no"?>
<!-- Created with Inkscape (http://www.inkscape.org/) -->

<svg
   width="96"
   height="96"
   id="svg2"
   version="1.1"
   inkscape:version="1.4.2 (ebf0e940d0, 2025-05-08)"
   sodipodi:docname="6.svg"
   inkscape:export-filename="/a/home/cc/students/cs/barakitk/Documents/Cage_16_Blue.png"
   inkscape:export-xdpi="90"
   inkscape:export-ydpi="90"
   sodipodi:version="0.32"
   inkscape:output_extension="org.inkscape.output.svg.inkscape"
   viewBox="0 0 96 96"
   xmlns:inkscape="http://www.inkscape.org/namespaces/inkscape"
   xmlns:sodipodi="http://sodipodi.sourceforge.net/DTD/sodipodi-0.dtd"
   xmlns="http://www.w3.org/2000/svg"
   xmlns:svg="http://www.w3.org/2000/svg"
   xmlns:rdf="http://www.w3.org/1999/02/22-rdf-syntax-ns#"
   xmlns:cc="http://creativecommons.org/ns#"
   xmlns:dc="http://purl.org/dc/elements/1.1/">
  <defs
     id="defs4" />
  <sodipodi:namedview
     id="base"
     pagecolor="#ffffff"
     bordercolor="#dadada"
     borderopacity="1"
     inkscape:pageopacity="0.0"
     inkscape:pageshadow="2"
     inkscape:zoom="1.1268467"
     inkscape:cx="8.8743216"
     inkscape:cy="84.306055"
     inkscape:document-units="px"
     inkscape:current-layer="layer1"
     showgrid="false"
     objecttolerance="20"
     inkscape:object-nodes="false"
     inkscape:object-paths="false"
     inkscape:snap-global="true"
     inkscape:snap-nodes="false"
     inkscape:snap-center="false"
     inkscape:window-width="1614"
     inkscape:window-height="730"
     inkscape:window-x="327"
     inkscape:window-y="55"
     inkscape:window-maximized="0"
     showborder="true"
     borderlayer="true"
     inkscape:showpageshadow="false"
     inkscape:snap-bbox="true"
     showguides="true"
     inkscape:pagecheckerboard="0"
     inkscape:deskcolor="#d1d1d1">
    <inkscape:grid
       type="xygrid"
       id="grid4140"
       empspacing="5"
       visible="false"
       enabled="true"
       snapvisiblegridlinesonly="true"
       originx="0"
       originy="0"
       spacingy="1"
       spacingx="1"
       units="px" />
  </sodipodi:namedview>
  <metadata
     id="metadata7">
    <rdf:RDF>
      <cc:Work
         rdf:about="">
        <dc:format>image/svg+xml</dc:format>
        <dc:type
           rdf:resource="http://purl.org/dc/dcmitype/StillImage" />
        <dc:creator>
          <cc:Agent>
            <dc:title>Barak Itkin &lt;lightningismyname@gmail.com&gt;</dc:title>
          </cc:Agent>
        </dc:creator>
        <dc:rights>
          <cc:Agent>
            <dc:title>Barak Itkin &lt;lightningismyname@gmail.com&gt;</dc:title>
          </cc:Agent>
        </dc:rights>
        <dc:date>July 2010</dc:date>
        <cc:license
           rdf:resource="" />
      </cc:Work>
    </rdf:RDF>
  </metadata>
  <g
     inkscape:label="Layer 1"
     inkscape:groupmode="layer"
     id="layer1"
     transform="translate(0,-1036.3622)">
    <g
       id="g38"
       transform="matrix(-0.17812146,0,0,0.17812146,245.67985,941.54822)">
      <path
         id="path19"
         d="m 1285.7946,763.17205 c 0,-24.26534 -19.672,-43.93467 -43.9346,-43.93467 -5.4427,0 -10.6494,0.99733 -15.4587,2.804 -6.868,-15.30667 -22.2307,-25.97333 -40.0933,-25.97333 -10.9707,0 -20.9947,4.03067 -28.6934,10.68 -7.1466,-14.58667 -22.1346,-24.63067 -39.4706,-24.63067 -13.9894,0 -26.444,6.54667 -34.4894,16.73734 -7.856,-11.93067 -21.36,-19.808 -36.7106,-19.808 -19.8054,0 -36.544,13.10666 -42.0294,31.11733 -8.02529,-8.664 -19.49596,-14.096 -32.23862,-14.096 -15.47067,0 -29.064,8.00267 -36.89067,20.08533 -2.296,-0.36933 -4.64667,-0.56933 -7.04533,-0.56933 -24.26534,0 -43.93467,19.67066 -43.93467,43.93733 0,7.92667 2.11067,15.36133 5.78533,21.784 -14.25333,7.26 -24.02266,22.064 -24.02266,39.15867 0,22.43999 16.82533,40.93466 38.54533,43.59333 -0.44933,2.51866 -0.696,5.104 -0.696,7.752 0,24.26666 19.66933,43.936 43.936,43.936 16.09067,0 30.15467,-8.65734 37.80933,-21.56267 7.652,12.90533 21.71596,21.56267 37.80796,21.56267 11.7254,0 22.3707,-4.60267 30.2494,-12.08934 7.8626,11.88267 21.344,19.72667 36.6586,19.72667 19.26,0 35.6174,-12.40133 41.5467,-29.648 8.0453,8.96 19.7133,14.60133 32.7027,14.60133 11.7973,0 22.5066,-4.65066 30.3986,-12.21866 0,0 50.2614,50.232 121.3974,31.40133 -85.3214,-7.68267 -107.9414,-60.45867 -107.9107,-61.17733 6.2933,3.48133 13.528,5.468 21.2307,5.468 24.2626,0 43.9346,-19.67067 43.9346,-43.93467 0,-10.27066 -3.5346,-19.71066 -9.4386,-27.18933 12.6253,-7.71867 21.0546,-21.63067 21.0546,-37.51333"
         style="fill:#ffffff;fill-opacity:1;fill-rule:nonzero;stroke:none;stroke-width:0.133333" />
      <path
         id="path20"
         d="m 1195.584,890.52004 2.7693,2.768 c 0.3427,0.34267 35.2053,34.45467 86.5613,34.45467 2.056,0 4.116,-0.0547 6.18,-0.164 -30.5293,-6.82533 -50.5906,-19.62 -62.764,-30.24667 -16.3453,-14.27066 -23.4146,-28.72933 -23.3133,-31.15733 l 0.268,-6.46667 5.664,3.13334 c 5.876,3.24933 12.548,4.968 19.2947,4.968 22.0186,0 39.9346,-17.91334 39.9346,-39.93467 0,-9.05866 -2.9666,-17.60266 -8.5786,-24.71066 l -2.7947,-3.54 3.848,-2.352 c 11.9853,-7.32667 19.1413,-20.07467 19.1413,-34.1 0,-22.02 -17.9146,-39.93467 -39.9346,-39.93467 -4.8227,0 -9.5507,0.85733 -14.052,2.54933 l -3.5174,1.32134 -1.54,-3.42934 c -6.4346,-14.34266 -20.7386,-23.61066 -36.4426,-23.61066 -9.568,0 -18.8307,3.448 -26.0787,9.70666 l -3.924,3.38934 -2.2827,-4.656 c -6.768,-13.812 -20.5146,-22.39067 -35.8786,-22.39067 -12.288,0 -23.7147,5.54534 -31.3494,15.216 l -3.4333,4.348 -3.048,-4.62666 c -7.4253,-11.276 -19.8987,-18.008 -33.3693,-18.008 -17.6974,0 -33.0507,11.36666 -38.2027,28.28266 l -2.0307,6.66133 -4.732,-5.10933 c -7.54262,-8.14266 -18.22396,-12.81333 -29.30262,-12.81333 -13.592,0 -26.128,6.82666 -33.53467,18.26 l -1.41733,2.19066 -2.576,-0.416 c -2.13867,-0.34533 -4.29467,-0.51866 -6.408,-0.51866 -22.02,0 -39.93467,17.91466 -39.93467,39.93733 0,6.94 1.81733,13.78533 5.25733,19.796 l 2.08534,3.64667 -3.74134,1.904 c -13.47066,6.86266 -21.83866,20.50133 -21.83866,35.596 0,20.14399 15.06,37.17733 35.032,39.62266 l 4.19333,0.51333 -0.74133,4.16 c -0.42134,2.36 -0.63467,4.732 -0.63467,7.04934 0,22.02 17.91467,39.936 39.936,39.936 14.028,0 27.19733,-7.512 34.36933,-19.604 l 3.44,-5.80134 3.44,5.80134 c 7.16934,12.092 20.33866,19.604 34.36796,19.604 10.2734,0 20.0374,-3.90267 27.4947,-10.98934 l 3.4573,-3.28533 2.6334,3.97867 c 7.4293,11.22933 19.8866,17.93333 33.3226,17.93333 17.0454,0 32.2227,-10.82933 37.764,-26.94933 l 2.2134,-6.436 4.5466,5.06533 c 7.572,8.43467 18.4067,13.27333 29.7254,13.27333 10.348,0 20.1613,-3.944 27.6293,-11.10533 z m 89.3306,45.22267 c -46.8386,0 -79.9146,-25.81867 -89.4466,-34.23067 -8.548,7.00534 -19.184,10.824 -30.34,10.824 -11.5267,0 -22.6334,-4.17866 -31.2854,-11.62666 -7.9973,16.172 -24.5746,26.67333 -42.964,26.67333 -14.612,0 -28.2586,-6.60267 -37.3253,-17.86533 -8.4173,6.62266 -18.7653,10.228 -29.5827,10.228 -14.796,0 -28.79329,-6.95867 -37.80796,-18.48934 -9.01733,11.53067 -23.016,18.48934 -37.80933,18.48934 -26.43333,0 -47.936,-21.504 -47.936,-47.936 0,-1.468 0.0707,-2.95334 0.21067,-4.444 -21.96134,-4.592 -38.06,-24.084 -38.06,-46.90133 0,-16.76934 8.60266,-32.04267 22.7,-40.752 -2.92934,-6.30134 -4.46267,-13.20667 -4.46267,-20.19067 0,-26.43333 21.50267,-47.93733 47.93467,-47.93733 1.69866,0 3.42,0.0933 5.13866,0.27866 9.02134,-12.44266 23.34,-19.79466 38.79734,-19.79466 11.2,0 22.06,3.97467 30.61602,11.06667 7.68,-17.028 24.5253,-28.088 43.652,-28.088 14.4346,0 27.9173,6.43733 36.9826,17.44666 8.9867,-9.192 21.1987,-14.376 34.2174,-14.376 16.8026,0 31.9946,8.54934 40.7066,22.60667 8.0174,-5.61067 17.6027,-8.656 27.4574,-8.656 17.6346,0 33.7973,9.73333 42.1306,25.08 4.352,-1.26934 8.852,-1.91067 13.4214,-1.91067 26.4306,0 47.9346,21.504 47.9346,47.93467 0,15.39066 -7.1786,29.49866 -19.3986,38.524 5.104,7.78 7.7826,16.748 7.7826,26.17866 0,26.43067 -21.504,47.93467 -47.9346,47.93467 -4.0787,0 -8.136,-0.52267 -12.06,-1.54267 10.5106,14.99467 38.3293,43.796 99.1,49.26667 l 22.6226,2.03866 -21.9586,5.81334 c -10.9214,2.89066 -22.036,4.35733 -33.0334,4.35733"
         style="fill:#211d1d;fill-opacity:1;fill-rule:nonzero;stroke:none;stroke-width:0.133333" />
    </g>
  </g>
</svg>
