<?xml version="1.0" encoding="UTF-8" standalone="no"?>
<!-- Created with Inkscape (http://www.inkscape.org/) -->

<svg
   width="96"
   height="96"
   id="svg2"
   version="1.1"
   inkscape:version="1.4.2 (ebf0e940d0, 2025-05-08)"
   sodipodi:docname="8.svg"
   inkscape:export-filename="/a/home/cc/students/cs/barakitk/Documents/Cage_16_Blue.png"
   inkscape:export-xdpi="90"
   inkscape:export-ydpi="90"
   sodipodi:version="0.32"
   inkscape:output_extension="org.inkscape.output.svg.inkscape"
   viewBox="0 0 96 96"
   xmlns:inkscape="http://www.inkscape.org/namespaces/inkscape"
   xmlns:sodipodi="http://sodipodi.sourceforge.net/DTD/sodipodi-0.dtd"
   xmlns="http://www.w3.org/2000/svg"
   xmlns:svg="http://www.w3.org/2000/svg"
   xmlns:rdf="http://www.w3.org/1999/02/22-rdf-syntax-ns#"
   xmlns:cc="http://creativecommons.org/ns#"
   xmlns:dc="http://purl.org/dc/elements/1.1/">
  <defs
     id="defs4" />
  <sodipodi:namedview
     id="base"
     pagecolor="#ffffff"
     bordercolor="#dadada"
     borderopacity="1"
     inkscape:pageopacity="0.0"
     inkscape:pageshadow="2"
     inkscape:zoom="1.1268467"
     inkscape:cx="8.8743216"
     inkscape:cy="84.306055"
     inkscape:document-units="px"
     inkscape:current-layer="layer1"
     showgrid="false"
     objecttolerance="20"
     inkscape:object-nodes="false"
     inkscape:object-paths="false"
     inkscape:snap-global="true"
     inkscape:snap-nodes="false"
     inkscape:snap-center="false"
     inkscape:window-width="1614"
     inkscape:window-height="730"
     inkscape:window-x="327"
     inkscape:window-y="55"
     inkscape:window-maximized="0"
     showborder="true"
     borderlayer="true"
     inkscape:showpageshadow="false"
     inkscape:snap-bbox="true"
     showguides="true"
     inkscape:pagecheckerboard="0"
     inkscape:deskcolor="#d1d1d1">
    <inkscape:grid
       type="xygrid"
       id="grid4140"
       empspacing="5"
       visible="false"
       enabled="true"
       snapvisiblegridlinesonly="true"
       originx="0"
       originy="0"
       spacingy="1"
       spacingx="1"
       units="px" />
  </sodipodi:namedview>
  <metadata
     id="metadata7">
    <rdf:RDF>
      <cc:Work
         rdf:about="">
        <dc:format>image/svg+xml</dc:format>
        <dc:type
           rdf:resource="http://purl.org/dc/dcmitype/StillImage" />
        <dc:creator>
          <cc:Agent>
            <dc:title>Barak Itkin &lt;lightningismyname@gmail.com&gt;</dc:title>
          </cc:Agent>
        </dc:creator>
        <dc:rights>
          <cc:Agent>
            <dc:title>Barak Itkin &lt;lightningismyname@gmail.com&gt;</dc:title>
          </cc:Agent>
        </dc:rights>
        <dc:date>July 2010</dc:date>
        <cc:license
           rdf:resource="" />
      </cc:Work>
    </rdf:RDF>
  </metadata>
  <g
     inkscape:label="Layer 1"
     inkscape:groupmode="layer"
     id="layer1"
     transform="translate(0,-1036.3622)">
    <g
       id="g39"
       transform="matrix(-0.21196733,0,0,0.21196733,277.50891,981.15107)">
      <path
         id="path13"
         d="m 904.41064,396.19472 h 354.35996 c 9.4014,0 17.02,7.62 17.02,17.02 v 119.132 c 0,9.4 -7.6186,17.02 -17.02,17.02 H 962.93464 l -55.844,39.24533 18.19734,-39.24533 h -20.87734 c -9.39866,0 -17.02,-7.62 -17.02,-17.02 v -119.132 c 0,-9.4 7.62134,-17.02 17.02,-17.02"
         style="fill:#ffffff;fill-opacity:1;fill-rule:nonzero;stroke:none;stroke-width:0.133333" />
      <path
         id="path14"
         d="m 904.41064,400.19472 c -7.18,0 -13.02,5.84 -13.02,13.02 v 119.132 c 0,7.17867 5.84,13.02 13.02,13.02 h 27.14134 l -14.55867,31.39733 44.67733,-31.39733 h 297.09996 c 7.1787,0 13.02,-5.84133 13.02,-13.02 v -119.132 c 0,-7.18 -5.8413,-13.02 -13.02,-13.02 z m -7.22133,200.26666 21.83467,-47.09466 h -14.61334 c -11.59066,0 -21.02,-9.42933 -21.02,-21.02 v -119.132 c 0,-11.59066 9.42934,-21.02 21.02,-21.02 h 354.35996 c 11.5907,0 21.02,9.42934 21.02,21.02 v 119.132 c 0,11.59067 -9.4293,21.02 -21.02,21.02 H 964.19998 l -67.01067,47.09466"
         style="fill:#211d1d;fill-opacity:1;fill-rule:nonzero;stroke:none;stroke-width:0.133333" />
    </g>
  </g>
</svg>
