<?xml version="1.0" encoding="UTF-8" standalone="no"?>
<svg
   id="svg3277"
   height="40"
   width="40"
   version="1.1"
   sodipodi:docname="freehand.svg"
   inkscape:version="1.2.2 (b0a8486541, 2022-12-01)"
   xmlns:inkscape="http://www.inkscape.org/namespaces/inkscape"
   xmlns:sodipodi="http://sodipodi.sourceforge.net/DTD/sodipodi-0.dtd"
   xmlns:xlink="http://www.w3.org/1999/xlink"
   xmlns="http://www.w3.org/2000/svg"
   xmlns:svg="http://www.w3.org/2000/svg"
   xmlns:rdf="http://www.w3.org/1999/02/22-rdf-syntax-ns#"
   xmlns:cc="http://creativecommons.org/ns#"
   xmlns:dc="http://purl.org/dc/elements/1.1/">
  <sodipodi:namedview
     id="namedview1521"
     pagecolor="#ffffff"
     bordercolor="#000000"
     borderopacity="0.25"
     inkscape:showpageshadow="2"
     inkscape:pageopacity="0.0"
     inkscape:pagecheckerboard="0"
     inkscape:deskcolor="#d1d1d1"
     showgrid="false"
     inkscape:zoom="13.994822"
     inkscape:cx="16.077375"
     inkscape:cy="13.755088"
     inkscape:window-width="2814"
     inkscape:window-height="1953"
     inkscape:window-x="186"
     inkscape:window-y="108"
     inkscape:window-maximized="0"
     inkscape:current-layer="svg3277" />
  <defs
     id="defs3279">
    <linearGradient
       id="linearGradient3240">
      <stop
         offset="0"
         style="stop-color:#3e3e3e;stop-opacity:1"
         id="stop3242" />
      <stop
         offset="0.5"
         style="stop-color:#828282;stop-opacity:1"
         id="stop3244" />
      <stop
         offset="1"
         style="stop-color:#3c3c3c;stop-opacity:1"
         id="stop3246" />
    </linearGradient>
    <linearGradient
       id="linearGradient3223">
      <stop
         offset="0"
         style="stop-color:#999999;stop-opacity:1"
         id="stop3225" />
      <stop
         offset="0.5"
         style="stop-color:#ffffff;stop-opacity:1"
         id="stop3231" />
      <stop
         offset="1"
         style="stop-color:#777777;stop-opacity:1"
         id="stop3227" />
    </linearGradient>
    <linearGradient
       spreadMethod="pad"
       gradientTransform="matrix(0.72471369,-0.72797167,0.74368331,0.73965022,-20.48325,10.380574)"
       gradientUnits="userSpaceOnUse"
       xlink:href="#linearGradient1481"
       id="linearGradient3265-3"
       y2="31.210939"
       x2="23.575972"
       y1="25.356892"
       x1="23.575972" />
    <linearGradient
       id="linearGradient1481">
      <stop
         id="stop1465"
         style="stop-color:#ad5f00;stop-opacity:1"
         offset="0" />
      <stop
         id="stop1467"
         style="stop-color:#ffe16b;stop-opacity:1"
         offset="0.13482948" />
      <stop
         id="stop1469"
         style="stop-color:#f9c440;stop-opacity:1"
         offset="0.20224422" />
      <stop
         id="stop1471"
         style="stop-color:#fff394;stop-opacity:1"
         offset="0.26965895" />
      <stop
         id="stop1473"
         style="stop-color:#f9c440;stop-opacity:1"
         offset="0.44650277" />
      <stop
         id="stop1475"
         style="stop-color:#f9c440;stop-opacity:1"
         offset="0.57114136" />
      <stop
         id="stop1477"
         style="stop-color:#ffe16b;stop-opacity:1"
         offset="0.72038066" />
      <stop
         id="stop1479"
         style="stop-color:#ad5f00;stop-opacity:1"
         offset="1" />
    </linearGradient>
    <linearGradient
       spreadMethod="pad"
       y2="31.210939"
       x2="23.575972"
       y1="25.356892"
       x1="23.575972"
       gradientTransform="matrix(0.72471368,-0.72797165,0.74368335,0.73965022,-20.483243,10.380573)"
       gradientUnits="userSpaceOnUse"
       id="linearGradient1462"
       xlink:href="#linearGradient3155-6" />
    <linearGradient
       id="linearGradient3155-6">
      <stop
         offset="0"
         style="stop-color:#555761;stop-opacity:1"
         id="stop3157-7" />
      <stop
         offset="0.13482948"
         style="stop-color:#d4d4d4;stop-opacity:1"
         id="stop3171-5" />
      <stop
         offset="0.20224422"
         style="stop-color:#abacae;stop-opacity:1"
         id="stop3173-3" />
      <stop
         offset="0.26965895"
         style="stop-color:#fafafa;stop-opacity:1"
         id="stop3163-5" />
      <stop
         offset="0.44650277"
         style="stop-color:#abacae;stop-opacity:1"
         id="stop3165-6" />
      <stop
         offset="0.57114136"
         style="stop-color:#abacae;stop-opacity:1"
         id="stop3167-2" />
      <stop
         offset="0.72038066"
         style="stop-color:#d4d4d4;stop-opacity:1"
         id="stop3169-9" />
      <stop
         offset="1"
         style="stop-color:#7e8087;stop-opacity:1"
         id="stop3159-1" />
    </linearGradient>
    <linearGradient
       gradientTransform="matrix(0.70422706,-0.70739293,0.87034588,0.86562586,-23.141947,7.1875389)"
       gradientUnits="userSpaceOnUse"
       xlink:href="#linearGradient3290-6"
       id="linearGradient3268-0"
       y2="26.02973"
       x2="9"
       y1="29.056757"
       x1="9" />
    <linearGradient
       id="linearGradient3290-6">
      <stop
         offset="0"
         style="stop-color:#fff394;stop-opacity:1"
         id="stop3292-2" />
      <stop
         offset="1"
         style="stop-color:#fafafa;stop-opacity:1"
         id="stop3294-6" />
    </linearGradient>
    <linearGradient
       gradientTransform="matrix(0.5917075,0,0,0.5909776,1.5753556,2.2913528)"
       gradientUnits="userSpaceOnUse"
       xlink:href="#linearGradient3191-8"
       id="linearGradient3270-1"
       y2="41.391716"
       x2="9.5220556"
       y1="37.371799"
       x1="5.5178981" />
    <linearGradient
       id="linearGradient3191-8">
      <stop
         offset="0"
         style="stop-color:#d48e15;stop-opacity:1"
         id="stop3193-7" />
      <stop
         offset="1"
         style="stop-color:#ad5f00;stop-opacity:1"
         id="stop3195-9" />
    </linearGradient>
    <linearGradient
       y2="30.000141"
       x2="30.037716"
       y1="24.989594"
       x1="30.037716"
       gradientTransform="matrix(0.70422706,-0.70739292,0.87034591,0.86562588,-22.874474,6.9188637)"
       gradientUnits="userSpaceOnUse"
       id="linearGradient980"
       xlink:href="#linearGradient3240" />
    <linearGradient
       y2="30.000141"
       x2="30.037716"
       y1="24.989594"
       x1="30.037716"
       gradientTransform="matrix(0.70422706,-0.70739292,0.87034591,0.86562588,-23.076155,7.1214519)"
       gradientUnits="userSpaceOnUse"
       id="linearGradient982"
       xlink:href="#linearGradient3223" />
    <linearGradient
       y2="30.000141"
       x2="30.037716"
       y1="24.989594"
       x1="30.037716"
       gradientTransform="matrix(0.70422706,-0.70739292,0.87034591,0.86562588,-22.173635,6.2148729)"
       gradientUnits="userSpaceOnUse"
       id="linearGradient984"
       xlink:href="#linearGradient3240" />
    <linearGradient
       y2="30.000141"
       x2="30.037716"
       y1="24.989594"
       x1="30.037716"
       gradientTransform="matrix(0.70422706,-0.70739292,0.87034591,0.86562588,-22.375316,6.4174609)"
       gradientUnits="userSpaceOnUse"
       id="linearGradient986"
       xlink:href="#linearGradient3223" />
    <linearGradient
       y2="30.000141"
       x2="30.037716"
       y1="24.989594"
       x1="30.037716"
       gradientTransform="matrix(0.70422706,-0.70739292,0.87034591,0.86562588,-21.469407,5.5074803)"
       gradientUnits="userSpaceOnUse"
       id="linearGradient988"
       xlink:href="#linearGradient3240" />
    <linearGradient
       y2="30.000141"
       x2="30.037716"
       y1="24.989594"
       x1="30.037716"
       gradientTransform="matrix(0.70422706,-0.70739292,0.87034591,0.86562588,-21.671089,5.7100681)"
       gradientUnits="userSpaceOnUse"
       id="linearGradient990"
       xlink:href="#linearGradient3223" />
  </defs>
  <metadata
     id="metadata3282">
    <rdf:RDF>
      <cc:Work
         rdf:about="">
        <dc:format>image/svg+xml</dc:format>
        <dc:type
           rdf:resource="http://purl.org/dc/dcmitype/StillImage" />
      </cc:Work>
    </rdf:RDF>
  </metadata>
  <g
     id="g355"
     transform="matrix(1.3203075,0,0,1.3203075,-0.22692741,-1.5582663)">
    <path
       style="fill:url(#linearGradient3265-3);fill-opacity:1;stroke:#ad5f00;stroke-width:0.547853;stroke-linecap:butt;stroke-linejoin:round;stroke-miterlimit:4;stroke-dasharray:none;stroke-dashoffset:0;stroke-opacity:1"
       id="rect2383-3"
       d="m 6.4564179,21.007596 c 0.4870212,-0.374353 1.7819922,0.232546 2.9461134,1.390354 1.1613367,1.155037 1.7449557,2.419434 1.3784177,2.910725 -0.0014,0.0019 0.02862,0.0252 0.0272,0.02705 L 28.479846,7.5845838 C 28.928516,7.1338967 28.319321,5.797159 27.118243,4.6025956 25.917166,3.4080319 24.576788,2.8057645 24.128115,3.2564541 Z" />
    <path
       style="opacity:0.6;fill:#f9c440;fill-opacity:1;stroke:none;stroke-width:0.603919"
       id="path3208-6"
       d="m 6.4564179,21.007596 c 0.4870212,-0.374353 1.7819922,0.232546 2.9461134,1.390354 1.1613367,1.155037 1.7449557,2.419434 1.3784177,2.910725 -0.0014,0.0019 0.02862,0.0252 0.0272,0.02705 l 12.169924,-12.224634 0.04402,-0.04421 c 0.0015,-0.0019 -0.02859,-0.02518 -0.0272,-0.02705 0.366538,-0.491293 -0.217081,-1.755688 -1.378418,-2.910726 -1.16412,-1.1578073 -2.459093,-1.7647068 -2.946113,-1.3903531 l -0.04402,0.04421 L 6.4564173,21.007597 Z" />
    <path
       d="m 6.4564179,21.007596 c 0.4870212,-0.374353 1.7819922,0.232546 2.9461134,1.390354 1.1613367,1.155037 1.7449557,2.419434 1.3784177,2.910725 -0.0014,0.0019 0.02862,0.0252 0.0272,0.02705 L 28.479846,7.5845838 C 28.928516,7.1338967 28.319321,5.797159 27.118243,4.6025956 25.917166,3.4080319 24.576788,2.8057645 24.128115,3.2564541 Z"
       id="path1483"
       style="fill:none;fill-opacity:1;stroke:#ad5f00;stroke-width:0.547853;stroke-linecap:butt;stroke-linejoin:round;stroke-miterlimit:4;stroke-dasharray:none;stroke-dashoffset:0;stroke-opacity:1" />
    <path
       id="path1458"
       d="m 24.615392,3.1084355 c -0.207521,-0.011751 -0.374693,0.034991 -0.48686,0.1476632 l -5.458195,5.4828065 c 0.487024,-0.3743537 1.78166,0.2321546 2.945781,1.3899618 1.161333,1.155038 1.745798,2.419175 1.379258,2.910467 -0.0016,0.0019 0.02821,0.02595 0.02673,0.02782 l 5.4582,-5.4828054 C 28.928975,7.1336615 28.319243,5.7967532 27.118164,4.6021901 26.217357,3.706267 25.237945,3.1436838 24.615376,3.1084355 Z"
       style="fill:url(#linearGradient1462);fill-opacity:1;stroke:#555761;stroke-width:0.547853;stroke-linecap:butt;stroke-linejoin:round;stroke-miterlimit:4;stroke-dasharray:none;stroke-dashoffset:0;stroke-opacity:1" />
    <path
       style="opacity:0.9;fill:#fe9ab8;fill-opacity:1;stroke:#de3e80;stroke-width:0.547853;stroke-linecap:butt;stroke-linejoin:round;stroke-miterlimit:4;stroke-dasharray:none;stroke-dashoffset:0;stroke-opacity:1"
       id="rect3175-8"
       d="m 21.971421,5.4228452 c 0.48702,-0.3743534 1.781992,0.2325456 2.946113,1.3903535 1.161337,1.1550373 1.744957,2.4194331 1.378417,2.9107251 -0.0014,0.00187 0.02862,0.025204 0.0272,0.027051 l 2.156696,-2.1663909 0.04402,-0.044212 c 0.0015,-0.00185 -0.02859,-0.025182 -0.0272,-0.027052 C 28.8632,7.0220296 28.27958,5.7576334 27.118243,4.6025956 25.954122,3.4447882 24.659151,2.8378883 24.17213,3.2122417 l -0.04402,0.044212 -2.156694,2.1663911 z" />
    <path
       style="fill:url(#linearGradient980);fill-opacity:1;stroke:none;stroke-width:0.603919"
       id="path3233-2"
       d="m 19.554027,7.851106 c 0.487021,-0.3743539 1.781994,0.2325453 2.946114,1.3903532 1.161337,1.1550378 1.744956,2.4194338 1.378417,2.9107258 -0.0014,0.0019 0.02862,0.0252 0.0272,0.02705 l 0.220071,-0.221062 c 0.0015,-0.0019 -0.02859,-0.02518 -0.0272,-0.02705 0.366538,-0.491292 -0.21708,-1.755688 -1.378418,-2.910724 C 21.55609,7.8625904 20.261119,7.2556905 19.774097,7.6300444 l -0.220071,0.221061 z" />
    <path
       style="fill:url(#linearGradient982);fill-opacity:1;stroke:none;stroke-width:0.603919"
       id="path3216-7"
       d="m 19.352346,8.0536937 c 0.487021,-0.3743538 1.781993,0.2325451 2.946113,1.3903536 1.161338,1.1550367 1.744958,2.4194327 1.378418,2.9107237 -0.0014,0.0019 0.02862,0.0252 0.0272,0.02705 l 0.220071,-0.221061 c 0.0015,-0.0019 -0.0286,-0.02518 -0.0272,-0.02705 0.366538,-0.491292 -0.21708,-1.755688 -1.378418,-2.9107247 -1.16412,-1.157808 -2.459092,-1.764708 -2.946114,-1.3903541 z" />
    <path
       style="fill:url(#linearGradient984);fill-opacity:1;stroke:none;stroke-width:0.603919"
       id="path3248-0"
       d="m 20.254867,7.1471154 c 0.487021,-0.374354 1.781993,0.2325451 2.946113,1.3903537 1.161337,1.1550371 1.744956,2.4194329 1.378418,2.9107249 -0.0014,0.0019 0.02862,0.0252 0.0272,0.02705 l 0.22007,-0.22106 c 0.0015,-0.0019 -0.02859,-0.02518 -0.0272,-0.02705 C 25.166008,10.735843 24.582389,9.4714465 23.421051,8.3164095 22.256931,7.158601 20.96196,6.5517016 20.474938,6.9260555 Z" />
    <path
       style="fill:url(#linearGradient986);fill-opacity:1;stroke:none;stroke-width:0.603919"
       id="path3250-7"
       d="m 20.053186,7.3497031 c 0.487021,-0.3743542 1.781993,0.2325451 2.946113,1.3903529 1.161338,1.1550383 1.744957,2.419433 1.378419,2.910725 -0.0014,0.0019 0.02862,0.0252 0.0272,0.02705 l 0.220071,-0.221062 c 0.0015,-0.0019 -0.02859,-0.02518 -0.0272,-0.02705 0.366539,-0.491292 -0.21708,-1.7556886 -1.378418,-2.9107245 -1.164119,-1.1578081 -2.459092,-1.764708 -2.946113,-1.3903537 l -0.220071,0.2210605 z" />
    <path
       style="fill:url(#linearGradient988);fill-opacity:1;stroke:none;stroke-width:0.603919"
       id="path3256-6"
       d="m 20.959095,6.4397223 c 0.48702,-0.3743535 1.781992,0.2325456 2.946112,1.3903534 1.161337,1.1550382 1.744957,2.4194333 1.378418,2.9107253 -0.0014,0.0019 0.02862,0.0252 0.0272,0.02705 l 0.220071,-0.221061 c 0.0015,-0.0019 -0.02859,-0.02519 -0.0272,-0.02705 C 25.870235,10.028448 25.286616,8.7640524 24.125278,7.609015 22.961159,6.4512071 21.666187,5.8443077 21.179165,6.2186615 Z" />
    <path
       style="fill:url(#linearGradient990);fill-opacity:1;stroke:none;stroke-width:0.603919"
       id="path3258-7"
       d="m 20.757413,6.6423097 c 0.487021,-0.374354 1.781993,0.2325455 2.946113,1.3903539 1.161337,1.1550372 1.744957,2.4194334 1.378418,2.9107244 -0.0014,0.0019 0.02862,0.0252 0.0272,0.02705 l 0.220071,-0.22106 c 0.0015,-0.0019 -0.02859,-0.02519 -0.0272,-0.02705 0.366539,-0.491293 -0.217081,-1.7556887 -1.378418,-2.9107256 -1.16412,-1.1578079 -2.459092,-1.7647078 -2.946113,-1.390353 z" />
    <path
       style="fill:url(#linearGradient3268-0);fill-opacity:1;fill-rule:evenodd;stroke:url(#linearGradient3270-1);stroke-width:0.547853;stroke-linecap:butt;stroke-linejoin:miter;stroke-miterlimit:4;stroke-dasharray:none;stroke-opacity:1"
       id="path3270-4"
       d="m 2.878165,28.851242 7.84114,-3.47544 0.06848,-0.06848 c 0.36654,-0.491293 -0.225413,-1.75543 -1.3867499,-2.910468 -1.164121,-1.157808 -2.4576866,-1.761105 -2.9447077,-1.386752 z" />
    <path
       style="fill:#000000;fill-opacity:1;fill-rule:evenodd;stroke:#000000;stroke-width:0.547853;stroke-linecap:butt;stroke-linejoin:miter;stroke-miterlimit:4;stroke-dasharray:none;stroke-opacity:1"
       id="path3281-3"
       d="M 3.8473807,26.727532 2.8780483,28.843021 5.0169081,27.890716 C 4.8571715,27.696221 4.7105125,27.497995 4.5169564,27.305489 4.2941213,27.083862 4.0732196,26.905767 3.8473807,26.727532 Z" />
  </g>
</svg>
